<?xml version="1.0" encoding="UTF-8" standalone="no"?>
<!-- Created with Inkscape (http://www.inkscape.org/) -->

<svg
   xmlns:dc="http://purl.org/dc/elements/1.1/"
   xmlns:cc="http://creativecommons.org/ns#"
   xmlns:rdf="http://www.w3.org/1999/02/22-rdf-syntax-ns#"
   xmlns:svg="http://www.w3.org/2000/svg"
   xmlns="http://www.w3.org/2000/svg"
   xmlns:sodipodi="http://sodipodi.sourceforge.net/DTD/sodipodi-0.dtd"
   xmlns:inkscape="http://www.inkscape.org/namespaces/inkscape"
   width="210mm"
   height="297mm"
   id="svg5851"
   version="1.1"
   inkscape:version="0.47 r22583"
   sodipodi:docname="Nouveau document 3">
  <defs
     id="defs5853">
    <inkscape:perspective
       sodipodi:type="inkscape:persp3d"
       inkscape:vp_x="0 : 526.18109 : 1"
       inkscape:vp_y="0 : 1000 : 0"
       inkscape:vp_z="744.09448 : 526.18109 : 1"
       inkscape:persp3d-origin="372.04724 : 350.78739 : 1"
       id="perspective5859" />
    <inkscape:perspective
       id="perspective5730"
       inkscape:persp3d-origin="0.5 : 0.33333333 : 1"
       inkscape:vp_z="1 : 0.5 : 1"
       inkscape:vp_y="0 : 1000 : 0"
       inkscape:vp_x="0 : 0.5 : 1"
       sodipodi:type="inkscape:persp3d" />
    <clipPath
       id="clipPath6459"
       clipPathUnits="userSpaceOnUse">
      <path
         id="path6461"
         d="M 0,0 253,0 253,58 0,58 0,0 z" />
    </clipPath>
    <inkscape:perspective
       id="perspective7221"
       inkscape:persp3d-origin="0.5 : 0.33333333 : 1"
       inkscape:vp_z="1 : 0.5 : 1"
       inkscape:vp_y="0 : 1000 : 0"
       inkscape:vp_x="0 : 0.5 : 1"
       sodipodi:type="inkscape:persp3d" />
  </defs>
  <sodipodi:namedview
     id="base"
     pagecolor="#ffffff"
     bordercolor="#666666"
     borderopacity="1.0"
     inkscape:pageopacity="0.0"
     inkscape:pageshadow="2"
     inkscape:zoom="0.49033019"
     inkscape:cx="324.73459"
     inkscape:cy="1268.2471"
     inkscape:document-units="px"
     inkscape:current-layer="layer1"
     showgrid="false"
     inkscape:window-width="1272"
     inkscape:window-height="841"
     inkscape:window-x="0"
     inkscape:window-y="19"
     inkscape:window-maximized="0" />
  <metadata
     id="metadata5856">
    <rdf:RDF>
      <cc:Work
         rdf:about="">
        <dc:format>image/svg+xml</dc:format>
        <dc:type
           rdf:resource="http://purl.org/dc/dcmitype/StillImage" />
        <dc:title></dc:title>
      </cc:Work>
    </rdf:RDF>
  </metadata>
  <g
     inkscape:label="Calque 1"
     inkscape:groupmode="layer"
     id="layer1">
    <g
       id="g6463"
       transform="matrix(3.1433275,0.00341498,0.00341498,-3.1433275,-10.198377,179.18505)" />
    <g
       id="g6465"
       transform="matrix(3.1433275,0.00341498,0.00341498,-3.1433275,-10.198377,179.18505)">
      <path
         id="path6467"
         style="fill:#0000ff;fill-opacity:1;fill-rule:nonzero;stroke:none"
         d="m 201.416,57.305 1.2,0 -2.156,-7.905 -1.668,0 -2.134,7.905 1.201,0 1.772,-6.715 0.023,0 1.762,6.715" />
      <path
         id="path6469"
         style="fill:#0000ff;fill-opacity:1;fill-rule:nonzero;stroke:none"
         d="m 211.011,50.496 0,-1.096 -5.247,0 0,7.905 1.201,0 0,-6.809 4.046,0" />
      <path
         id="path6471"
         style="fill:#0000ff;fill-opacity:1;fill-rule:nonzero;stroke:none"
         d="m 215.279,51.674 -0.56,-2.274 -1.213,0 2.158,7.905 1.527,0 2.157,-7.905 -1.213,0 -0.571,2.274 -2.285,0 z m 1.165,4.523 -0.023,0 -0.863,-3.428 1.737,0 -0.851,3.428" />
      <path
         id="path6473"
         style="fill:#0000ff;fill-opacity:1;fill-rule:nonzero;stroke:none"
         d="m 223.673,51.674 -0.559,-2.274 -1.213,0 2.157,7.905 1.527,0 2.158,-7.905 -1.212,0 -0.571,2.274 -2.287,0 z m 1.166,4.523 -0.023,0 -0.862,-3.428 1.737,0 -0.852,3.428" />
      <path
         id="path6475"
         style="fill:#0000ff;fill-opacity:1;fill-rule:nonzero;stroke:none"
         d="m 234.156,57.305 1.854,0 0,-7.905 -1.201,0 0,6.588 -0.024,0 -1.084,-4.023 -0.957,0 -1.084,4.023 -0.023,0 0,-6.588 -1.201,0 0,7.905 1.855,0 0.92,-3.043 0.023,0 0.922,3.043" />
      <path
         id="path6477"
         style="fill:#0000ff;fill-opacity:1;fill-rule:nonzero;stroke:none"
         d="m 239.123,51.348 0,0.244 1.201,0 c 0.012,-0.746 0.535,-1.201 1.281,-1.201 0.678,0 1.307,0.326 1.307,1.095 0,0.864 -0.896,1.201 -1.795,1.621 -0.898,0.432 -1.808,0.934 -1.808,2.112 0,1.363 1.131,2.191 2.437,2.191 1.084,0 2.285,-0.758 2.285,-1.947 l 0,-0.151 -1.201,0 c 0.047,0.665 -0.478,1 -1.107,1 -0.629,0 -1.213,-0.242 -1.213,-0.99 0,-0.57 0.455,-0.873 0.91,-1.084 l 0.699,-0.326 c 1.072,-0.514 1.994,-1.072 1.994,-2.414 0,-1.387 -1.201,-2.203 -2.508,-2.203 -1.187,0 -2.482,0.746 -2.482,2.053" />
      <path
         id="path6479"
         style="fill:#0000ff;fill-opacity:1;fill-rule:nonzero;stroke:none"
         d="m 248.963,54.076 3.08,0 0,-1.096 -3.08,0 0,-2.484 3.674,0 0,-1.096 -4.875,0 0,7.905 4.734,0 0,-1.096 -3.533,0 0,-2.133" />
      <path
         id="path6481"
         style="fill:#0000ff;fill-opacity:1;fill-rule:nonzero;stroke:none"
         d="m 199.41,36.504 0,1.096 2.833,0 0,-3.86 c -0.7,-0.291 -1.516,-0.478 -2.274,-0.478 -2.39,0 -3.043,2.041 -3.043,4.07 0,2.121 0.699,4.045 3.16,4.045 1.155,0 2.157,-0.793 2.157,-1.596 l 0,-0.094 -1.201,0 c -0.117,0.467 -0.432,0.594 -0.956,0.594 -1.679,0 -1.96,-1.351 -1.96,-2.844 0,-1.388 0.199,-3.08 1.948,-3.08 0.35,0 0.665,0.071 0.968,0.188 l 0,1.959 -1.632,0" />
      <path
         id="path6483"
         style="fill:#0000ff;fill-opacity:1;fill-rule:nonzero;stroke:none"
         d="m 206.989,38.043 3.078,0 0,-1.096 -3.078,0 0,-2.484 3.673,0 0,-1.096 -4.874,0 0,7.905 4.733,0 0,-1.094 -3.532,0 0,-2.135" />
      <path
         id="path6485"
         style="fill:#0000ff;fill-opacity:1;fill-rule:nonzero;stroke:none"
         d="m 217.366,41.272 1.854,0 0,-7.905 -1.201,0 0,6.588 -0.023,0 -1.085,-4.023 -0.956,0 -1.084,4.023 -0.024,0 0,-6.588 -1.201,0 0,7.905 1.854,0 0.921,-3.042 0.023,0 0.922,3.042" />
      <path
         id="path6487"
         style="fill:#0000ff;fill-opacity:1;fill-rule:nonzero;stroke:none"
         d="m 223.779,38.043 3.078,0 0,-1.096 -3.078,0 0,-2.484 3.673,0 0,-1.096 -4.874,0 0,7.905 4.733,0 0,-1.094 -3.532,0 0,-2.135" />
      <path
         id="path6489"
         style="fill:#0000ff;fill-opacity:1;fill-rule:nonzero;stroke:none"
         d="m 232.174,38.043 3.078,0 0,-1.096 -3.078,0 0,-2.484 3.672,0 0,-1.096 -4.873,0 0,7.905 4.734,0 0,-1.094 -3.533,0 0,-2.135" />
      <path
         id="path6491"
         style="fill:#0000ff;fill-opacity:1;fill-rule:nonzero;stroke:none"
         d="m 243.147,41.272 1.095,0 0,-7.905 -1.307,0 -2.822,5.981 -0.023,0 0,-5.981 -1.096,0 0,7.905 1.401,0 2.728,-5.737 0.024,0 0,5.737" />
      <path
         id="path6493"
         style="fill:#0000ff;fill-opacity:1;fill-rule:nonzero;stroke:none"
         d="m 247.518,35.315 0,0.244 1.201,0 c 0.011,-0.747 0.537,-1.202 1.283,-1.202 0.676,0 1.305,0.328 1.305,1.096 0,0.865 -0.897,1.201 -1.795,1.623 -0.899,0.43 -1.807,0.932 -1.807,2.109 0,1.364 1.131,2.192 2.436,2.192 1.086,0 2.287,-0.756 2.287,-1.947 l 0,-0.151 -1.201,0 c 0.046,0.664 -0.479,1.002 -1.108,1.002 -0.631,0 -1.213,-0.244 -1.213,-0.99 0,-0.572 0.453,-0.875 0.909,-1.086 l 0.699,-0.326 c 1.074,-0.512 1.994,-1.072 1.994,-2.412 0,-1.389 -1.201,-2.205 -2.506,-2.205 -1.19,0 -2.484,0.746 -2.484,2.053" />
      <path
         id="path6495"
         style="fill:#0000ff;fill-opacity:1;fill-rule:nonzero;stroke:none"
         d="m 200.914,23.455 c -0.036,0.479 -0.478,0.793 -0.98,0.793 -1.27,0 -1.469,-1.994 -1.469,-2.926 0,-0.945 0.175,-2.996 1.469,-2.996 0.502,0 0.944,0.35 0.98,0.864 l 1.201,0 c 0,-1.18 -1.015,-1.96 -2.134,-1.96 -2.134,0 -2.717,2.309 -2.717,4.034 0,1.82 0.583,4.082 2.717,4.082 1.119,0 2.134,-0.758 2.134,-1.891 l -1.201,0" />
      <path
         id="path6497"
         style="fill:#0000ff;fill-opacity:1;fill-rule:nonzero;stroke:none"
         d="m 206.72,20.891 0,-3.557 -1.201,0 0,7.906 1.201,0 0,-3.254 2.635,0 0,3.254 1.201,0 0,-7.906 -1.201,0 0,3.557 -2.635,0" />
      <path
         id="path6499"
         style="fill:#0000ff;fill-opacity:1;fill-rule:nonzero;stroke:none"
         d="m 215.279,19.607 -0.56,-2.273 -1.213,0 2.158,7.906 1.527,0 2.157,-7.906 -1.213,0 -0.571,2.273 -2.285,0 z m 1.165,4.526 -0.023,0 -0.863,-3.43 1.737,0 -0.851,3.43" />
      <path
         id="path6501"
         style="fill:#0000ff;fill-opacity:1;fill-rule:nonzero;stroke:none"
         d="m 222.449,25.24 2.671,0 c 1.574,0 2.681,-0.711 2.681,-2.355 0,-1.645 -1.294,-2.285 -2.763,-2.285 l -1.387,0 0,-3.266 -1.202,0 0,7.906 z m 2.612,-3.545 c 0.828,0 1.539,0.256 1.539,1.213 0,1.037 -0.63,1.236 -1.527,1.236 l -1.422,0 0,-2.449 1.41,0" />
      <path
         id="path6503"
         style="fill:#0000ff;fill-opacity:1;fill-rule:nonzero;stroke:none"
         d="m 230.727,19.281 0,0.246 1.201,0 c 0.012,-0.746 0.537,-1.201 1.283,-1.201 0.676,0 1.307,0.326 1.307,1.096 0,0.863 -0.899,1.201 -1.797,1.621 -0.897,0.432 -1.807,0.934 -1.807,2.109 0,1.366 1.131,2.194 2.438,2.194 1.083,0 2.285,-0.758 2.285,-1.948 l 0,-0.152 -1.202,0 c 0.047,0.664 -0.478,1.002 -1.107,1.002 -0.631,0 -1.213,-0.244 -1.213,-0.99 0,-0.571 0.455,-0.875 0.91,-1.084 l 0.7,-0.326 c 1.072,-0.514 1.994,-1.073 1.994,-2.414 0,-1.389 -1.201,-2.204 -2.508,-2.204 -1.189,0 -2.484,0.745 -2.484,2.051" />
      <path
         id="path6505"
         style="fill:#0000ff;fill-opacity:1;fill-rule:nonzero;stroke:none"
         d="m 242.889,23.455 c -0.036,0.479 -0.479,0.793 -0.979,0.793 -1.271,0 -1.47,-1.994 -1.47,-2.926 0,-0.945 0.175,-2.996 1.47,-2.996 0.5,0 0.943,0.35 0.979,0.864 l 1.201,0 c 0,-1.18 -1.014,-1.96 -2.135,-1.96 -2.133,0 -2.715,2.309 -2.715,4.034 0,1.82 0.582,4.082 2.715,4.082 1.121,0 2.135,-0.758 2.135,-1.891 l -1.201,0" />
      <path
         id="path6507"
         style="fill:#0000ff;fill-opacity:1;fill-rule:nonzero;stroke:none"
         d="m 252.81,21.299 c 0,-1.739 -0.781,-4.069 -2.796,-4.069 -2.018,0 -2.799,2.33 -2.799,4.069 0,1.598 0.793,4.047 2.799,4.047 2.006,0 2.796,-2.449 2.796,-4.047 z m -4.394,-0.059 c 0,-0.99 0.221,-2.914 1.598,-2.914 1.363,0 1.597,1.924 1.597,2.914 0,1.014 -0.211,3.008 -1.597,3.008 -1.401,0 -1.598,-1.994 -1.598,-3.008" />
      <path
         id="path6509"
         style="fill:#0000ff;fill-opacity:1;fill-rule:nonzero;stroke:none"
         d="m 200.576,9.207001 1.853,0 0,-7.904001 -1.2,0 0,6.588 -0.024,0 -1.084,-4.024 -0.956,0 -1.085,4.024 -0.023,0 0,-6.588 -1.201,0 0,7.904001 1.854,0 0.921,-3.043 0.023,0 0.922,3.043" />
      <path
         id="path6511"
         style="fill:#0000ff;fill-opacity:1;fill-rule:nonzero;stroke:none"
         d="m 208.971,9.207001 1.854,0 0,-7.904001 -1.201,0 0,6.588 -0.024,0 -1.084,-4.024 -0.957,0 -1.084,4.024 -0.023,0 0,-6.588 -1.201,0 0,7.904001 1.854,0 0.921,-3.043 0.023,0 0.922,3.043" />
      <path
         id="path6513"
         style="fill:#0000ff;fill-opacity:1;fill-rule:nonzero;stroke:none"
         d="m 217.028,2.398 1.422,0 0,-1.095 -4.046,0 0,1.095 1.423,0 0,5.713 -1.19,0 0,1.096001 3.569,0 0,-1.096001 -1.178,0 0,-5.713" />
      <path
         id="path6515"
         style="fill:#0000ff;fill-opacity:1;fill-rule:nonzero;stroke:none"
         d="m 222.332,3.25 0,0.244 1.202,0 c 0.011,-0.746 0.536,-1.201 1.282,-1.201 0.677,0 1.307,0.326 1.307,1.096 0,0.863 -0.899,1.201 -1.796,1.621 -0.898,0.431 -1.808,0.933 -1.808,2.109 0,1.365 1.132,2.193 2.438,2.193 1.083,0 2.285,-0.757 2.285,-1.947 l 0,-0.152 -1.202,0 c 0.047,0.666 -0.477,1.004 -1.107,1.004 -0.63,0 -1.213,-0.246 -1.213,-0.992 0,-0.571 0.455,-0.873 0.909,-1.084 l 0.701,-0.327 c 1.072,-0.513 1.994,-1.072 1.994,-2.414 0,-1.386 -1.201,-2.203 -2.508,-2.203 -1.19,0 -2.484,0.746 -2.484,2.053" />
      <path
         id="path6517"
         style="fill:#0000ff;fill-opacity:1;fill-rule:nonzero;stroke:none"
         d="m 230.727,3.25 0,0.244 1.201,0 c 0.012,-0.746 0.537,-1.201 1.283,-1.201 0.676,0 1.307,0.326 1.307,1.096 0,0.863 -0.899,1.201 -1.797,1.621 -0.897,0.431 -1.807,0.933 -1.807,2.109 0,1.365 1.131,2.193 2.438,2.193 1.083,0 2.285,-0.757 2.285,-1.947 l 0,-0.152 -1.202,0 c 0.047,0.666 -0.478,1.004 -1.107,1.004 -0.631,0 -1.213,-0.246 -1.213,-0.992 0,-0.571 0.455,-0.873 0.91,-1.084 l 0.7,-0.327 c 1.072,-0.513 1.994,-1.072 1.994,-2.414 0,-1.386 -1.201,-2.203 -2.508,-2.203 -1.189,0 -2.484,0.746 -2.484,2.053" />
      <path
         id="path6519"
         style="fill:#0000ff;fill-opacity:1;fill-rule:nonzero;stroke:none"
         d="m 242.213,2.398 1.422,0 0,-1.095 -4.045,0 0,1.095 1.422,0 0,5.713 -1.19,0 0,1.096001 3.569,0 0,-1.096001 -1.178,0 0,-5.713" />
      <path
         id="path6521"
         style="fill:#0000ff;fill-opacity:1;fill-rule:nonzero;stroke:none"
         d="m 248.963,5.977 3.08,0 0,-1.094 -3.08,0 0,-2.485 3.674,0 0,-1.095 -4.875,0 0,7.904001 4.734,0 0,-1.096001 -3.533,0 0,-2.134" />
      <path
         id="path6523"
         style="fill:#0000ff;fill-opacity:1;fill-rule:nonzero;stroke:none"
         d="m 111.286,56.637 48.672,0 0,-14.033 -48.672,0 0,14.033 z" />
      <path
         id="path6525"
         style="fill:none;stroke:none"
         d="m 159.958,30.555 c 0,-16.662 -12.453,-28.631 -24.335,-30.168 -11.884,1.537 -24.337,13.506 -24.337,30.168 l 0,12.048 48.672,0 0,-12.048" />
      <path
         id="path6527"
         style="fill:#0000ff;fill-opacity:1;fill-rule:nonzero;stroke:none"
         d="m 159.958,56.922 -48.957,0 0,-26.367 c 0,-16.84 12.761,-28.918 24.584,-30.453 l 0.038,-0.004 0.036,0.004 c 11.823,1.531 24.587,13.613 24.587,30.453 l 0,26.367 -0.288,0 z m -0.286,-0.569 c 0,-0.546 0,-25.798 0,-25.798 0,-16.518 -12.477,-28.364 -24.049,-29.881 -11.574,1.517 -24.049,13.363 -24.049,29.881 0,0 0,25.252 0,25.798 0.563,0 47.532,0 48.098,0" />
      <path
         id="path6529"
         style="fill:#0000ff;fill-opacity:1;fill-rule:nonzero;stroke:none"
         d="m 136.556,56.57 0,0 c -0.412,-0.017 -0.774,-0.195 -1.07,-0.527 -0.185,-0.209 -0.343,-0.486 -0.474,-0.826 -0.039,0.135 -0.09,0.252 -0.179,0.338 -0.014,0.017 -0.035,0.031 -0.055,0.043 l -0.281,0.117 c -0.023,0.006 -0.046,0.012 -0.075,0.012 -0.316,0 -0.601,-0.172 -0.796,-0.489 -0.209,-0.341 -0.327,-0.883 -0.327,-1.523 0,-0.5 0.092,-1.057 0.24,-1.625 -0.101,0.021 -0.2,0.062 -0.305,0.062 -0.759,0 -1.696,-0.677 -1.696,-1.23 0,0 0.011,-0.033 0.016,-0.043 -1.151,-0.197 -2.047,-1.119 -2.047,-1.838 0,-0.834 0.53,-1.371 1.348,-1.371 0.513,0 0.915,0.314 1.269,0.592 0.26,0.203 0.505,0.394 0.702,0.394 0.095,0 0.204,-0.387 0.323,-1.144 0.119,-0.772 0.273,-1.711 0.94,-2.047 -0.004,-0.031 -0.008,-0.192 -0.008,-0.192 0,-1.339 0.563,-2.173 1.049,-2.482 0.325,-0.205 0.672,-0.229 0.956,-0.055 0.02,0.012 0.038,0.03 0.049,0.045 l 0.243,0.317 c 0.016,0.019 0.025,0.049 0.031,0.074 0.072,0.31 -0.107,0.56 -0.262,0.785 -0.054,0.076 -0.176,0.254 -0.179,0.312 0,0.624 0.541,1.817 1.39,1.817 0.317,0 0.448,-0.098 0.66,-0.252 0.238,-0.178 0.534,-0.4 1.063,-0.4 0.709,0 1.119,0.382 1.119,1.05 0,0.676 -0.943,1.426 -2.201,1.426 -0.214,0 -0.401,-0.043 -0.598,-0.07 0.471,0.205 0.986,0.324 1.533,0.342 1.21,0.031 1.606,-0.413 1.989,-0.84 0.321,-0.362 0.719,-0.811 1.499,-0.688 0.002,0 0.111,0.018 0.111,0.018 0.401,0.056 1.078,0.152 1.078,1.191 0,0.471 -0.259,1.002 -0.691,1.41 -0.468,0.448 -1.353,0.967 -2.896,0.907 -0.406,-0.016 -0.919,-0.106 -1.478,-0.246 -0.055,0.248 -0.167,0.48 -0.368,0.652 -0.115,0.096 -0.267,0.17 -0.44,0.23 0.783,0.737 1.608,1.752 1.608,2.768 0,0.959 -0.429,1.285 -0.682,1.389 -0.13,0.052 -0.267,0.058 -0.4,0.043 -0.034,0.306 -0.112,0.56 -0.26,0.716 -0.06,0.063 -0.219,0.166 -0.448,0.2 0,0.015 -0.01,0.021 -0.02,0.05 l -0.137,0.295 c -0.01,0.022 -0.025,0.041 -0.041,0.057 -0.126,0.119 -0.367,0.256 -0.802,0.236" />
      <path
         id="path6533"
         style="fill:#0000ff;fill-opacity:1;fill-rule:nonzero;stroke:none"
         d="m 124.616,25.314 c -0.097,-0.472 0.23,-1.974 1.495,-1.89 0.741,0.045 0.985,0.375 1.199,0.566 0.689,1.58 0.178,2.727 0.773,3.924 0.241,0.49 1.298,1.566 2.118,1.227 -0.812,-0.229 -1.433,-0.936 -1.673,-1.319 -0.672,-1.054 0.165,-3.461 -1.509,-4.861 0.816,-0.041 1.705,1.094 1.825,1.57 -0.458,0.647 -0.438,1.246 -0.388,1.752 0.05,0.449 0.782,2.141 2.09,1.975 -0.688,-0.264 -1.675,-1.342 -1.675,-2.35 0,-0.568 0.377,-1.818 1.46,-1.928 -0.672,0.506 -0.914,0.918 -0.914,1.44 0,0.52 0.464,0.963 1.141,0.984 0.112,0.002 0.34,-0.185 0.334,-0.357 -0.007,-0.272 -0.272,-0.627 -0.274,-0.873 -0.003,-0.158 0.055,-0.242 0.191,-0.285 -0.084,0.148 -0.057,0.345 -0.036,0.408 0.064,0.215 0.493,0.518 0.636,0.957 0.14,0.437 -0.035,0.941 0.078,1.277 0.17,0.51 0.521,0.651 0.953,0.598 -0.411,-0.617 0.098,-0.942 0.107,-1.574 0.009,-0.612 -0.681,-0.903 -0.673,-1.534 0,-0.199 0.056,-0.339 0.161,-0.392 -0.105,0.131 -0.095,0.265 -0.086,0.482 0.009,0.471 0.771,0.698 0.902,1.018 0.133,0.318 0,0.756 0.037,1.076 0.034,0.318 0.441,0.641 0.77,0.641 -0.131,-0.25 -0.079,-0.721 0.136,-0.906 0.315,-0.276 2.125,-0.188 2.393,-1.094 0.073,0.062 0.076,0.289 -0.08,0.551 -0.262,0.439 -1.16,0.488 -1.31,1.287 -0.071,0.382 0.245,0.705 0.637,0.818 -0.07,-1.057 1.194,-1.004 1.418,-1.225 -0.055,0.338 -1.058,0.559 -1.022,1.198 0.02,0.353 0.153,0.478 0.43,0.585 0.323,-0.589 1.282,-1.072 2.001,-0.718 0.715,0.355 1.082,0.863 1.156,1.146 -0.384,-0.25 -1.3,-0.17 -1.676,1.059 0.383,0.025 1.138,0.549 1.084,1.277 -0.168,-0.295 -0.933,-0.441 -0.933,0.25 0.275,-0.129 0.977,-0.09 1.15,0.613 -0.155,-0.16 -0.286,-0.121 -0.477,0.036 -0.419,0.339 0.006,1.431 -0.21,1.724 0.409,0.194 1.003,0.891 0.739,1.865 -0.466,-0.507 -0.798,-0.615 -1.175,-0.39 1.077,0.412 1.583,1.406 1.212,2.176 -0.432,-0.481 -1.589,-0.252 -1.902,-0.996 -0.377,0.39 0.485,0.72 0.485,1.146 0,0.33 -0.17,0.619 -0.289,0.727 -0.012,-0.452 -0.516,-0.711 -1.246,-0.795 -0.564,-0.067 -1.185,0.38 -2.403,-0.012 -0.479,-0.154 -0.623,-0.699 -0.788,-0.922 -0.169,-0.227 -0.763,-0.639 -1.997,-0.641 -0.112,-0.041 -0.363,-0.336 -0.204,-0.804 -0.241,-0.145 -0.372,-1.067 -0.348,-1.361 0.334,-0.046 0.208,-0.817 0.537,-1.046 0.073,0.229 0.342,0.717 0.982,0.735 0.514,0.015 0.875,-0.377 0.861,-0.982 -0.012,-0.602 -0.501,-1.174 -1.041,-1.139 -0.537,0.037 -0.629,0.381 -0.717,0.594 -0.119,-0.092 -0.2,-0.471 -0.216,-0.594 -0.064,0.008 -0.12,0.008 -0.168,-0.047 -0.094,-0.108 -0.346,-1.029 0.299,-1.731 0.083,0.301 0.092,0.508 0.613,0.571 0.385,0.047 0.715,-0.108 0.98,-0.108 0.264,0 0.416,0.073 0.537,0.178 0.013,-0.238 -0.479,-0.867 -0.98,-0.959 -0.27,-0.053 -0.377,-0.033 -1.704,-0.033 -1.296,0 -2.694,-0.526 -3.788,-4.078 -0.322,-1.037 -0.867,-1.221 -1.198,-1.213 -0.585,0.004 -0.682,0.406 -0.82,0.726" />
      <path
         id="path6535"
         style="fill:#0000ff;fill-opacity:1;fill-rule:nonzero;stroke:none"
         d="m 126.188,26.121 c 0.689,1.945 1.525,3.207 2.484,3.803 -2.704,1.953 -1.962,4.146 -1.82,4.717 0.036,0.136 0.933,0.423 0.851,1.015 -0.066,0.475 -0.564,0.295 -0.946,0.414 -0.563,0.18 -0.44,0.475 -0.67,0.559 -0.227,0.082 -0.539,-0.166 -0.574,-0.311 -0.034,-0.14 0.166,-0.414 -0.034,-0.508 -0.203,-0.093 -0.359,0.202 -0.359,0.368 0,0.168 0.322,0.521 0.156,0.818 -0.156,0.273 -0.626,-0.01 -0.935,-0.047 -0.312,-0.035 -1.003,0.188 -1.077,-0.201 -0.057,-0.314 0.322,-0.439 0.407,-0.594 0.086,-0.154 0.086,-0.461 -0.155,-0.498 -0.24,-0.033 0,0.498 -0.262,0.582 -0.261,0.08 -0.479,-0.428 -0.658,-0.558 -0.18,-0.127 -0.741,-0.082 -0.718,-0.532 0.037,-0.675 1.101,-0.439 1.087,-0.9 -0.009,-0.451 -0.556,-0.125 -0.704,-0.344 -0.25,-0.381 0.145,-0.679 0.238,-0.926 0.181,-0.449 -0.067,-0.876 0.323,-1.017 0.3,-0.108 0.57,0.527 0.73,0.354 0.156,-0.165 0.194,-0.712 -0.047,-0.899 -0.241,-0.188 -0.561,-0.057 -0.741,0.164 -0.024,-0.709 0.884,-1.158 1.435,-1.123 0.082,-0.57 -0.491,-0.719 -1.077,-0.522 0.298,-1.314 1.397,-1.244 1.709,-1.208 0.013,-0.411 -0.501,-0.745 -1.242,-0.366 0.393,-1.291 1.435,-1.232 2.186,-0.83 0.156,-0.435 -0.646,-0.828 -1.064,-0.674 0.062,-0.509 0.927,-0.963 1.477,-0.736" />
      <path
         id="path6537"
         style="fill:#0000ff;fill-opacity:1;fill-rule:nonzero;stroke:none"
         d="m 129.238,23.935 c -0.861,-2.076 -2.986,-2.636 -3.928,-2.332 -0.204,0.065 0.115,0.409 -0.071,0.674 -0.229,0.326 -0.754,-0.177 -0.968,-0.265 -0.215,-0.092 -0.988,-0.035 -1.025,-0.371 -0.034,-0.342 0.434,-0.485 0.289,-0.659 -0.234,-0.285 -0.339,0.284 -0.7,0.106 -0.244,-0.123 -0.163,-0.496 -0.179,-0.766 -0.018,-0.263 -0.168,-1 0.108,-1.101 0.378,-0.137 0.63,0.545 0.788,0.074 0.168,-0.504 -0.596,-0.16 -0.842,-0.483 -0.192,-0.249 0.112,-0.369 0.536,-0.726 0.643,-0.551 0.233,-0.811 0.755,-0.818 0.455,-0.006 0.151,1.119 0.682,1.082 0.318,-0.02 -0.144,-0.446 0,-0.762 0.143,-0.32 0.573,-0.018 0.861,0.017 0.285,0.038 0.844,-0.074 0.951,0.231 0.107,0.303 -0.378,0.639 -0.037,0.783 0.527,0.217 0.323,-0.392 0.43,-0.658 0.109,-0.266 0.382,-0.318 0.485,-0.693 0.521,0.091 0.269,1.189 0.448,1.511 0.683,0.379 0.204,-0.844 0.556,-1.119 0.056,0.479 0.635,0.461 0.79,1.098 0.131,0.537 -0.03,0.699 -0.116,0.967 0.591,0.312 0.301,-0.522 0.868,-0.694 0.406,-0.121 0.791,0.104 0.914,0.264 -0.985,0.439 -0.16,1.051 -0.483,1.355 0.652,0.096 0.448,-0.517 0.699,-0.713 0.226,-0.175 0.592,-0.267 0.844,-0.095 -0.605,0.355 0.142,1.14 0,1.65 0.502,-0.676 0.975,-1.031 1.613,-0.615 -0.548,0.285 -0.197,1.158 -0.87,1.414 1.015,0.34 0.653,-0.66 1.201,-0.922 0.28,-0.133 0.5,-0.08 0.621,0.108 -0.369,0.142 -0.247,0.947 0.213,0.947 0.395,0 0.503,-0.319 0.548,-0.647 0.037,-0.265 -0.143,-0.519 -0.177,-0.711 -0.742,-0.129 -2.699,-1.638 -3.293,-1.828 -1.046,-0.33 -3.711,-2.966 -3.981,-3.162 -0.269,-0.195 -0.807,-0.273 -1.22,0 0.115,-1.682 2.296,-1.58 3.265,-0.994 0.106,-0.391 0.518,-0.516 0.537,-0.871 0.019,-0.354 0.375,-0.676 0.844,-0.676 -0.218,-1.51 -1.807,-1.969 -2.367,-1.617 -0.265,0.168 0.268,0.517 -0.143,0.801 -0.413,0.285 -0.72,-0.409 -1.005,-0.549 -0.288,-0.145 -0.885,-0.391 -0.827,-0.713 0.044,-0.225 0.754,-0.225 0.398,-0.656 -0.231,-0.276 -0.648,0.355 -0.971,0.14 -0.323,-0.213 -0.073,-0.64 -0.02,-0.922 0.058,-0.287 -0.125,-0.908 0.162,-1.033 0.289,-0.122999 0.916,0.465 1.059,0.108001 0.146,-0.354001 -0.537,-0.231 -0.5,-0.694 0.033,-0.459001 0.322,-0.228001 0.5,-0.441 0.181,-0.217 0.671,-0.824001 0.934,-0.570001 0.436,0.418 -0.151,1.261 0.59,1.046 0.598,-0.166999 -0.177,-0.547999 0,-0.906 0.18,-0.353 0.216,-0.156 0.809,-0.051 0.591,0.108 0.778,0.079 0.797,0.397 0.018,0.318001 -0.547,0.371 -0.215,0.748 0.139,0.150001 0.415,0.131001 0.495,-0.094 0.262,-0.738 0.438,-0.47 0.589,-1.246 0.27,0.391 -0.322,1.311001 0.154,2.055 0.161,-0.877 0.601,-1.345999 0.923,-1.378999 -0.434,0.863 0.146,1.689 0.098,2.054999 -0.053,0.41 -0.25,0.611 -0.377,0.759 0.773,0.256 0.708,-0.607 0.872,-0.82 0.214,-0.285 0.645,-0.469 0.913,-0.363 -1.17,0.66 -0.047,1.754 -0.502,2.547 0.887,0.402 0.047,-1.615 1.579,-1.588 -0.269,0.178 -0.629,0.926 -0.198,1.353 0.43,0.426 0.498,1.53 0.18,2.041 -0.615,1 -1.607,0.479 -1.739,2.061 -0.049,0.57 0.735,1.002 1.219,1.033 0.885,0.057 1.615,-0.775 2.707,-0.359 -0.124,1.277 0.587,2.978 1.148,3.5 0.214,0.681 0.084,1.267 -0.313,1.658 0.485,0.137 0.789,-0.299 0.844,-0.565 0.055,-0.265 0.049,-1.015 -0.118,-1.359 -0.357,-0.322 -1.079,-1.531 -1.048,-3.137 0.018,-1.013 0.648,-2.369 0.242,-3.078 -0.413,-0.722 -0.896,-0.498 -1.236,-0.32 0.131,-0.805 1.902,-1.24 2.556,-0.498 0.082,0.096 -0.055,0.113 0.151,0.355 0.099,0.119 0.303,-0.017 0.589,0 0.289,0.02 0.289,0.038 0.396,0.196 0.162,-0.495 1.076,-0.871 1.543,-0.604 0.753,-0.773 0.904,-2.455 -0.304,-2.932 -1.024,-0.404 -0.736,0.536 -1.129,0.639 -0.397,0.108 -0.443,-0.414 -0.661,-0.603001 C 139.755,9.732 139.246,9.484 139.372,9.148001 c 0.126,-0.335 0.769,-0.111 0.554,-0.607001 -0.209,-0.482 -0.617,0.344 -0.984,0.053001 -0.467,-0.358001 -0.019,-0.619001 0.107,-1.049 0.126,-0.424001 0.05,-1.164 0.485,-1.113001 0.567,0.062 0.61,1.046 1.02,0.724 0.445,-0.338 -0.322,-0.443 -0.287,-0.869 0.035,-0.428 0.324,-0.18 0.699,-0.334 0.378,-0.163999 0.664,-0.519 0.953,-0.181 0.287,0.335 -0.463,0.873 0.087,1.136 0.45,0.213 0.165,-0.51 0.486,-0.656 0.389,-0.178 0.503,0.092 0.807,0.18 0.305,0.084 0.897,-0.004 0.897,0.388 0,0.389 -0.716,0.485 -0.753,1.037 -0.024,0.36 0.326,0.528 0.582,0.639 0.251,-0.408 0.012,-0.432 0.055,-0.666 0.077,-0.42 0.609,-0.445 0.653,-0.85 0.304,0.375 -0.053,0.582 -0.034,1.01 0.018,0.424001 0.259,0.516001 0.32,1.235 0.025,0.281001 -0.043,0.38 -0.295,0.515 0.143,0.319 0.398,0.379 0.611,0.141001 0.232,-0.268 -0.108,-0.729001 0.053,-0.994001 0.159,-0.264 0.353,-0.397 0.44,-0.684 0.306,0.215 -0.054,0.498 -0.087,0.996 -0.037,0.498001 0.327,0.838 0.24,1.27 -0.053,0.265 -0.163,0.347 -0.403,0.4 0.123,0.231 0.305,0.322 0.574,0.078 0.455,-0.408 0.295,-1.223999 0.931,-1.107 -0.586,0.59 -0.241,1.285 -0.492,2.068 -0.189,0.592 -0.277,0.637 -0.457,0.782 0.271,0.335 0.615,0.32 0.788,-0.026 0.215,-0.426 -0.178,-0.65 0.109,-1.041 0.286,-0.391 0.573,-0.416 0.93,-0.328 -0.631,0.609 0.128,0.791 -0.107,1.939 -0.119,0.602 -0.519,1.19 -1.021,1.313 -0.503,0.127 -0.987,0.019 -1.221,-0.264 -0.333,0.254 -0.012,0.822 -0.736,1.102 -0.502,0.191 -0.717,0.179 -0.984,0.123 -0.307,0.568 -1.222,0.904 -1.686,0.836 0.275,0.349 0.657,1.879 0.681,2.435 1.517,-1.826 3.609,-1.974 4.144,-2.205 0.83,-0.355 0.925,-2.264 1.956,-2.805 -0.636,1.229 0.26,3.079 -1.077,3.891 0.879,0.301 1.497,1.44 1.38,2.508 -0.198,1.785 -1.753,1.551 -2.135,3.496 -0.106,0.553 0.337,1.047 0.735,1.154 0.321,0.084 0.899,-0.283 1.006,-0.478 0.374,0.515 -0.26,1.609 -0.935,1.652 -1.128,0.071 -1.726,-0.842 -1.845,-1.371 -0.695,0.719 -0.288,1.979 0.394,2.313 1.005,0.494 1.631,-0.125 1.741,-0.586 0.315,1.123 -0.54,1.796 -1.274,1.847 -0.886,0.061 -1.783,-0.547 -2.278,-1.492 -0.2,0.143 -0.193,0.547 0.124,0.975 1.806,2.449 5.487,4.033 3.912,7.16 0.035,-1.86 -2.332,-4.529 -3.983,-5.008 0.826,1.918 2.978,4.289 2.887,6.164 -0.112,2.377 -1.856,3.684 -3.659,3.696 -2.445,0.019 -4.108,-1.639 -4.286,-3.516 -0.14,-1.461 0.718,-3.266 -1.003,-5.717 1.157,0.371 1.694,1.838 1.721,2.619 0.042,1.213 -0.44,1.625 -0.278,3.074 0.086,0.766 0.878,1.991 1.872,1.869 -0.662,-0.251 -1.388,-1.164 -1.423,-1.857 -0.082,-1.562 0.34,-2.207 0.365,-2.961 0.055,-1.519 -0.982,-2.125 -0.932,-3.158 0.085,-1.742 1.268,-2.521 1.132,-3.858 0.83,0.885 -0.017,2.881 -0.036,3.645 -0.02,0.762 0.96,1.988 0.709,2.936 -0.227,0.857 -0.626,1.244 -0.656,2.65 -0.017,0.881 0.53,1.818 1.381,1.785 -0.511,-0.258 -0.944,-1.141 -0.933,-1.744 0.036,-1.863 0.896,-2.656 1.004,-3.56 0.037,-0.307 -0.136,-1.227 -0.555,-1.747 1.278,0.747 1.238,2.987 0.958,3.825 -0.259,0.781 -0.871,0.97 -0.914,1.572 -0.047,0.676 0.44,1.654 1.21,1.555 -0.501,-0.336 -0.838,-0.852 -0.744,-1.465 0.06,-0.399 0.432,-0.889 0.951,-0.924 0.521,-0.037 0.925,0.392 0.996,1.033 -0.305,-0.408 -0.915,-0.371 -1.043,0.018 -0.124,0.39 0.427,1.279 1.186,1.189 0.712,-0.084 1.109,-0.506 1.203,-1.189 0.393,-2.903 -3.698,-6.278 -3.337,-9.026 0.454,-3.449 3.456,-3.945 4.342,-6.377 0.34,-0.937 0.071,-1.582 -0.646,-1.974 -1.141,-0.621 -2.752,1.375 -2.884,1.859 -0.339,1.256 -2.972,6.408 -4.767,7.775 -0.919,-0.521 -1.825,-0.078 -2.195,0.26 0.071,-0.304 0.904,-0.453 0.986,-1.103 0.037,-0.307 -0.121,-0.432 -0.36,-0.514 -0.177,0.373 -1.255,0.514 -1.589,0.834 0.379,-0.48 1.115,-0.633 1.249,-1.297 0.073,-0.367 -0.215,-0.967 -0.693,-1.023 0.045,0.392 -0.177,0.675 -0.485,0.89 -0.304,0.209 -1.791,0.133 -2.151,0.789 -0.035,-0.115 0.042,-0.547 -0.07,-0.845 -0.204,-0.52 -0.825,-0.69 -0.88,-1.008 -0.054,-0.322 0.125,-0.57 0.359,-0.746 -0.717,-0.278 -1.38,0.103 -1.274,0.859 0.105,0.733 0.652,1.004 0.664,1.502 0.011,0.326 -0.117,0.321 -0.215,0.711 -0.082,-0.125 -0.007,-0.477 -0.089,-1.014 -0.073,-0.47 -0.613,-0.853 -0.655,-1.076 -0.079,-0.41 0.091,-0.537 0.234,-0.652 -0.503,-0.342 -1.096,0.055 -1.164,0.484 -0.06,0.344 0.285,0.819 0.22,0.881 -0.074,0.074 -0.605,-0.023 -0.572,-0.502 0.078,-1.156 1.036,-1.424 1.443,-1.598 -0.538,-0.459 -1.57,-0.361 -2.098,0.082" />
      <path
         id="path6539"
         style="fill:#0000ff;fill-opacity:1;fill-rule:nonzero;stroke:none"
         d="m 131.579,32.377 c -0.342,0.566 -0.6,0.682 -1.343,0.709 -0.958,0.08 -2.138,-0.828 -2.809,0.357 -0.092,0.377 -0.092,0.701 0.207,1 0.151,0.063 0.43,0.063 0.547,-0.07 0.229,-0.158 0.404,-0.373 0.412,-0.645 1.519,0.053 2.452,-0.177 2.986,-1.351" />
      <path
         id="path6541"
         style="fill:#0000ff;fill-opacity:1;fill-rule:nonzero;stroke:none"
         d="m 126.435,38.24 c 0.405,-0.06 0.992,-1.221 1.003,-1.42 0.014,-0.201 -0.082,-0.429 -0.168,-0.488 -0.084,-0.059 -0.602,-0.064 -0.775,0.19 -0.228,0.333 0.25,1.103 -0.06,1.718" />
      <path
         id="path6543"
         style="fill:#0000ff;fill-opacity:1;fill-rule:nonzero;stroke:none"
         d="m 123.397,38.641 c 1.232,0.06 1.388,-0.735 1.363,-1.1 -0.018,-0.275 -0.775,-0.336 -0.945,-0.201 -0.179,0.14 0.155,0.912 -0.418,1.301" />
      <path
         id="path6545"
         style="fill:#0000ff;fill-opacity:1;fill-rule:nonzero;stroke:none"
         d="m 121.412,37.057 c 0.648,0.117 1.191,-0.426 1.268,-0.655 0.084,-0.248 -0.393,-0.816 -0.683,-0.662 -0.286,0.154 -0.128,1.043 -0.585,1.317" />
      <path
         id="path6547"
         style="fill:#0000ff;fill-opacity:1;fill-rule:nonzero;stroke:none"
         d="m 120.839,33.809 c -0.094,-0.913 0.716,-1.61 1.329,-1.479 0.208,0.043 0.018,0.648 -0.096,0.793 -0.217,0.271 -0.695,0 -1.233,0.686" />
      <path
         id="path6549"
         style="fill:#0000ff;fill-opacity:1;fill-rule:nonzero;stroke:none"
         d="m 122.71,23.15 c 0.769,-0.017 0.682,-0.767 0.861,-0.906 0.178,-0.144 0.696,-0.006 0.77,0.246 0.144,0.498 -1.021,1.086 -1.631,0.66" />
      <path
         id="path6551"
         style="fill:#0000ff;fill-opacity:1;fill-rule:nonzero;stroke:none"
         d="m 120.916,19.383 c 0.196,0.478 1.057,0.23 1.29,0.443 0.233,0.211 0.161,0.889 -0.269,0.943 -0.322,0.038 -1.04,-0.875 -1.021,-1.386" />
      <path
         id="path6553"
         style="fill:#0000ff;fill-opacity:1;fill-rule:nonzero;stroke:none"
         d="m 122.422,16.219 c 0,0.445 0.738,0.795 0.7,1.209 -0.036,0.408 -0.52,0.549 -0.716,0.369 -0.2,-0.174 -0.324,-1.401 0.016,-1.578" />
      <path
         id="path6555"
         style="fill:#0000ff;fill-opacity:1;fill-rule:nonzero;stroke:none"
         d="m 124.519,16.098 c 0.666,0.566 0.414,0.722 0.468,0.955 0.054,0.232 0.807,0.375 0.933,0.074 0.202,-0.49 -0.681,-1.229 -1.401,-1.029" />
      <path
         id="path6557"
         style="fill:#0000ff;fill-opacity:1;fill-rule:nonzero;stroke:none"
         d="m 126.333,13.467 c 0.429,-0.112 0.54,-1.032 0.825,-1.119 0.288,-0.09 0.788,0.371 0.736,0.673 -0.054,0.301 -1.057,0.694 -1.561,0.446" />
      <path
         id="path6559"
         style="fill:#0000ff;fill-opacity:1;fill-rule:nonzero;stroke:none"
         d="m 124.754,8.969001 c 0.251,0.41 0.915,0.356999 1.129,0.462999 0.215,0.107001 0.198,1.029 -0.124,1.068 -0.323,0.033 -1.203,-0.768 -1.005,-1.530999" />
      <path
         id="path6561"
         style="fill:#0000ff;fill-opacity:1;fill-rule:nonzero;stroke:none"
         d="m 127.696,6.092 c -0.25,0.252 0.017,0.941 -0.035,1.228 -0.055,0.28 -0.664,0.621 -0.899,0.387 -0.233,-0.229 0.075,-1.525 0.934,-1.615" />
      <path
         id="path6563"
         style="fill:#0000ff;fill-opacity:1;fill-rule:nonzero;stroke:none"
         d="m 128.636,6.125 c 0.513,0.127 0.584,0.732 0.719,0.883 0.14,0.146 0.961,0.449 1.11,0.203 0.155,-0.244 -0.708,-1.561 -1.829,-1.086" />
      <path
         id="path6565"
         style="fill:#0000ff;fill-opacity:1;fill-rule:nonzero;stroke:none"
         d="m 138.261,10.482 c 0.43,0.106 0.715,-0.41 0.949,-0.498 0.232,-0.09 0.753,0.426 0.627,0.729 -0.125,0.301 -1.201,0.301 -1.576,-0.231" />
      <path
         id="path6567"
         style="fill:#0000ff;fill-opacity:1;fill-rule:nonzero;stroke:none"
         d="m 137.848,6.107 c 0.018,0.481 0.735,0.571 0.916,0.735 0.178,0.156 -0.165,1.01 -0.468,0.973001 C 137.991,7.779 137.417,6.695 137.848,6.107" />
      <path
         id="path6569"
         style="fill:#0000ff;fill-opacity:1;fill-rule:nonzero;stroke:none"
         d="m 141.092,4.029 c -0.126,0.375 0.108,0.928 0.163,1.192 0.055,0.267 -0.807,0.535 -0.988,0.357 -0.18,-0.18 0.287,-1.369 0.825,-1.549" />
      <path
         id="path6571"
         style="fill:#0000ff;fill-opacity:1;fill-rule:nonzero;stroke:none"
         d="m 142.258,4.752 c 0.342,0.127 0.538,0.82 0.618,0.998 0.084,0.176 0.943,0.549 1.122,0.285 0.179,-0.256 -1.235,-1.623 -1.74,-1.283" />
      <path
         id="path6573"
         style="fill:#ffffff;fill-opacity:1;fill-rule:nonzero;stroke:none"
         d="m 133.703,36.082 c 0.025,-0.719 0.539,-0.695 1.387,-0.365 -0.06,0.152 -0.489,0.545 -0.632,0.601 -0.193,0 -0.599,-0.045 -0.755,-0.236" />
      <path
         id="path6575"
         style="fill:#0000ff;fill-opacity:1;fill-rule:nonzero;stroke:none"
         d="m 72.495,56.934 1.27201,0 0.91999,-6.551 0.027,0 0.923,6.551 1.313,0 -1.783,-9.856 -0.875,0 -1.797,9.856" />
      <path
         id="path6577"
         style="fill:#0000ff;fill-opacity:1;fill-rule:nonzero;stroke:none"
         d="m 77.985,56.934 1.255,0 0,-8.592 2.397,0 0,-1.133 -3.652,0 0,9.725" />
      <path
         id="path6579"
         style="fill:#0000ff;fill-opacity:1;fill-rule:nonzero;stroke:none"
         d="m 83.636,56.994 1.286,0 1.826,-9.785 -1.215,0 -0.34899,2.154 -1.81001,0 -0.38,-2.154 -1.19899,0 1.84099,9.785 z m 1.343,-6.494 -0.699,4.107 -0.031,0 -0.684,-4.107 1.414,0" />
      <path
         id="path6581"
         style="fill:#0000ff;fill-opacity:1;fill-rule:nonzero;stroke:none"
         d="m 88.80601,56.994 1.28499,0 1.824,-9.785 -1.21,0 -0.351,2.154 -1.81299,0 -0.37901,-2.154 -1.198,0 1.84201,9.785 z M 90.149,50.5 l -0.70199,4.107 -0.03,0 -0.68501,-4.107 1.417,0" />
      <path
         id="path6583"
         style="fill:#0000ff;fill-opacity:1;fill-rule:nonzero;stroke:none"
         d="m 96.82401,56.934 1.07699,0 0,-9.725 -1.225,0 0.07301,7.033 -0.03101,0.029 -1.226,-3.203 -0.22,0 -1.24099,3.203 -0.029,-0.029 0.07299,-7.033 -1.22599,0 0,9.725 1.082,0 1.445,-3.563 1.448,3.563" />
      <path
         id="path6585"
         style="fill:#0000ff;fill-opacity:1;fill-rule:nonzero;stroke:none"
         d="m 99.174,48.756 c 0.377,-0.352 0.75701,-0.528 1.137,-0.528 0.537,0 0.933,0.393 0.933,0.934 0,0.434 -0.176,0.973 -0.538,1.656 l -0.496,0.95 c -0.49899,0.945 -0.83199,1.703 -0.978,2.226 -0.07599,0.248 -0.11799,0.525 -0.11799,0.816 0,1.315 0.817,2.255 1.96899,2.255 0.398,0 0.661,-0.057 1.086,-0.258 l 0,-1.182 c -0.412,0.264 -0.588,0.322 -0.938,0.322 -0.539,0 -0.905,-0.349 -0.905,-0.918 0,-0.189 0.059,-0.539 0.145,-0.758 0.146,-0.466 0.293,-0.759 0.85,-1.822 0.642,-1.234 0.86,-1.703 1.02,-2.224 0.076,-0.278 0.117,-0.569 0.117,-0.872 0,-1.345 -0.832,-2.275 -2.016,-2.275 -0.45,0 -0.81599,0.121 -1.268,0.377 l 0,1.301" />
      <path
         id="path6587"
         style="fill:#0000ff;fill-opacity:1;fill-rule:nonzero;stroke:none"
         d="m 103.683,56.934 3.48,0 0,-1.133 -2.224,0 0,-2.969 2.032,0 0,-1.137 -2.032,0 0,-3.353 2.323,0 0,-1.133 -3.579,0 0,9.725" />
      <path
         id="path6589"
         style="fill:#0000ff;fill-opacity:1;fill-rule:nonzero;stroke:none"
         d="M 5.285,33.824 C 4.671,33.416 4.144,33.242 3.516,33.242 c -1.926,0 -3.168,1.891 -3.168,4.863 0,3.19 1.169,5.122 3.082,5.122 0.568,0 1.095,-0.2 1.855,-0.696 l 0,-1.355 c -0.774,0.715 -1.227,0.957 -1.782,0.957 -0.586,0 -1.039,-0.301 -1.332,-0.871 -0.392,-0.787 -0.522,-1.545 -0.522,-3.184 0,-2.431 0.656,-3.685 1.927,-3.685 0.176,0 0.262,0 0.451,0.042 l 0,3 -0.859,0 0,1.137 2.117,0 0,-4.748" />
      <path
         id="path6591"
         style="fill:#0000ff;fill-opacity:1;fill-rule:nonzero;stroke:none"
         d="m 6.802001,43.096 3.477999,0 0,-1.133 -2.221,0 0,-2.971 2.027,0 0,-1.135 -2.027,0 0,-3.353 2.322,0 0,-1.131 -3.578999,0 0,9.723" />
      <path
         id="path6593"
         style="fill:#0000ff;fill-opacity:1;fill-rule:nonzero;stroke:none"
         d="m 16.045,43.096 1.082,0 0,-9.723 -1.227,0 0.072,7.031 -0.025,0.03 -1.227,-3.202 -0.222,0 -1.242,3.202 -0.028,-0.03 0.072,-7.031 -1.227,0 0,9.723 1.082,0 1.445,-3.563 1.445,3.563" />
      <path
         id="path6595"
         style="fill:#0000ff;fill-opacity:1;fill-rule:nonzero;stroke:none"
         d="m 18.806,43.096 3.474,0 0,-1.133 -2.217,0 0,-2.971 2.029,0 0,-1.135 -2.029,0 0,-3.353 2.317,0 0,-1.131 -3.574,0 0,9.723" />
      <path
         id="path6597"
         style="fill:#0000ff;fill-opacity:1;fill-rule:nonzero;stroke:none"
         d="m 24.121,43.096 3.474,0 0,-1.133 -2.218,0 0,-2.971 2.03,0 0,-1.135 -2.03,0 0,-3.353 2.32,0 0,-1.131 -3.576,0 0,9.723" />
      <path
         id="path6599"
         style="fill:#0000ff;fill-opacity:1;fill-rule:nonzero;stroke:none"
         d="m 29.478,43.096 1.011,0 2.175,-5.996 0.031,0.029 -0.02,5.967 1.171,0 0,-9.723 -1.006,0 -2.193,6.055 -0.029,-0.03 0.016,-6.025 -1.156,0 0,9.723" />
      <path
         id="path6601"
         style="fill:#0000ff;fill-opacity:1;fill-rule:nonzero;stroke:none"
         d="m 35.115,34.918 c 0.38,-0.352 0.759,-0.525 1.14,-0.525 0.538,0 0.933,0.392 0.933,0.933 0,0.432 -0.173,0.971 -0.54,1.656 l -0.494,0.948 c -0.497,0.947 -0.835,1.703 -0.981,2.226 -0.07,0.248 -0.116,0.526 -0.116,0.819 0,1.312 0.817,2.252 1.972,2.252 0.395,0 0.657,-0.055 1.082,-0.258 l 0,-1.18 c -0.41,0.26 -0.584,0.32 -0.937,0.32 -0.541,0 -0.904,-0.349 -0.904,-0.916 0,-0.191 0.059,-0.541 0.145,-0.759 0.145,-0.463 0.295,-0.76 0.846,-1.823 0.643,-1.234 0.865,-1.703 1.025,-2.224 0.072,-0.278 0.115,-0.571 0.115,-0.871 0,-1.344 -0.835,-2.274 -2.015,-2.274 -0.454,0 -0.816,0.119 -1.271,0.375 l 0,1.301" />
      <path
         id="path6603"
         style="fill:#0000ff;fill-opacity:1;fill-rule:nonzero;stroke:none"
         d="m 43.352,33.795 c -0.512,-0.393 -0.95,-0.553 -1.52,-0.553 -1.636,0 -2.584,1.789 -2.584,4.877 0,3.234 0.948,5.108 2.599,5.108 0.422,0 0.922,-0.174 1.387,-0.508 l 0,-1.266 c -0.409,0.424 -0.846,0.656 -1.285,0.656 -0.994,0 -1.402,-1.134 -1.402,-3.933 0,-1.02 0.073,-1.848 0.207,-2.473 0.07,-0.293 0.19,-0.57 0.349,-0.799 0.218,-0.308 0.555,-0.5 0.907,-0.5 0.422,0 0.742,0.178 1.342,0.699 l 0,-1.308" />
      <path
         id="path6605"
         style="fill:#0000ff;fill-opacity:1;fill-rule:nonzero;stroke:none"
         d="m 44.49,43.096 1.255,0 0,-4.307 1.855,0 0,4.307 1.254,0 0,-9.723 -1.254,0 0,4.281 -1.855,0 0,-4.281 -1.255,0 0,9.723" />
      <path
         id="path6607"
         style="fill:#0000ff;fill-opacity:1;fill-rule:nonzero;stroke:none"
         d="m 51.662,43.156 1.282,0 1.826,-9.783 -1.213,0 -0.348,2.152 -1.812,0 -0.378,-2.152 -1.198,0 1.841,9.783 z m 1.34,-6.494 -0.702,4.107 -0.025,0 -0.687,-4.107 1.414,0" />
      <path
         id="path6609"
         style="fill:#0000ff;fill-opacity:1;fill-rule:nonzero;stroke:none"
         d="m 55.79,43.096 1.066,0 c 0.979,0 1.521,-0.114 2.075,-0.45 0.728,-0.437 1.138,-1.224 1.138,-2.183 0,-1.065 -0.394,-1.92 -1.108,-2.385 -0.439,-0.295 -0.95,-0.424 -1.724,-0.424 l -0.176,0 0,-4.281 -1.271,0 0,9.723 z m 1.506,-4.295 c 0.978,0 1.504,0.572 1.504,1.633 0,1.064 -0.509,1.529 -1.739,1.543 l 0,-3.176 0.235,0" />
      <path
         id="path6611"
         style="fill:#0000ff;fill-opacity:1;fill-rule:nonzero;stroke:none"
         d="m 60.815,34.918 c 0.382,-0.352 0.758,-0.525 1.141,-0.525 0.537,0 0.933,0.392 0.933,0.933 0,0.432 -0.178,0.971 -0.542,1.656 l -0.495,0.948 c -0.497,0.947 -0.833,1.703 -0.98,2.226 -0.073,0.248 -0.117,0.526 -0.117,0.819 0,1.312 0.818,2.252 1.972,2.252 0.395,0 0.659,-0.055 1.08,-0.258 l 0,-1.18 c -0.406,0.26 -0.584,0.32 -0.933,0.32 -0.541,0 -0.906,-0.349 -0.906,-0.916 0,-0.191 0.058,-0.541 0.144,-0.759 0.15,-0.463 0.292,-0.76 0.849,-1.823 0.643,-1.234 0.861,-1.703 1.025,-2.224 0.068,-0.278 0.11601,-0.571 0.11601,-0.871 0,-1.344 -0.83201,-2.274 -2.01701,-2.274 -0.453,0 -0.818,0.119 -1.27,0.375 l 0,1.301" />
      <path
         id="path6613"
         style="fill:#0000ff;fill-opacity:1;fill-rule:nonzero;stroke:none"
         d="m 69.048,33.795 c -0.509,-0.393 -0.94599,-0.553 -1.515,-0.553 -1.638,0 -2.58499,1.789 -2.58499,4.877 0,3.234 0.94699,5.108 2.59899,5.108 0.421,0 0.919,-0.174 1.38701,-0.508 l 0,-1.266 c -0.40801,0.424 -0.849,0.656 -1.28501,0.656 -0.991,0 -1.403,-1.134 -1.403,-3.933 0,-1.02 0.074,-1.848 0.205,-2.473 0.07,-0.293 0.19201,-0.57 0.352,-0.799 0.218,-0.308 0.554,-0.5 0.905,-0.5 0.424,0 0.744,0.178 1.34,0.699 l 0,-1.308" />
      <path
         id="path6615"
         style="fill:#0000ff;fill-opacity:1;fill-rule:nonzero;stroke:none"
         d="m 72.451,43.227 c 1.56501,0 2.617,-1.991 2.617,-4.989 0,-2.988 -1.05199,-4.996 -2.617,-4.996 -1.576,0 -2.62899,1.996 -2.62899,4.996 0,2.998 1.05299,4.989 2.62899,4.989 z m 0,-8.823 c 0.835,0 1.305,1.399 1.305,3.834 0,2.428 -0.47,3.824 -1.305,3.824 -0.846,0 -1.315,-1.38 -1.315,-3.824 0,-2.447 0.469,-3.834 1.315,-3.834" />
      <path
         id="path6617"
         style="fill:#0000ff;fill-opacity:1;fill-rule:nonzero;stroke:none"
         d="m 80.353,43.096 1.08101,0 0,-9.723 -1.22601,0 0.07101,7.031 -0.03101,0.03 -1.227,-3.202 -0.216,0 -1.242,3.202 -0.028,-0.03 0.07,-7.031 -1.22599,0 0,9.723 1.084,0 1.443,-3.563 1.44699,3.563" />
      <path
         id="path6619"
         style="fill:#0000ff;fill-opacity:1;fill-rule:nonzero;stroke:none"
         d="m 87.04,43.096 1.078,0 0,-9.723 -1.22699,0 0.07599,7.031 -0.03399,0.03 -1.22301,-3.202 -0.219,0 -1.242,3.202 -0.028,-0.03 0.07301,-7.031 -1.22401,0 0,9.723 1.081,0 1.441,-3.563 1.448,3.563" />
      <path
         id="path6621"
         style="fill:#0000ff;fill-opacity:1;fill-rule:nonzero;stroke:none"
         d="m 89.755,43.096 1.254997,0 0,-9.723 -1.254997,0 0,9.723 z" />
      <path
         id="path6623"
         style="fill:#0000ff;fill-opacity:1;fill-rule:nonzero;stroke:none"
         d="m 92.276,34.918 c 0.385,-0.352 0.764,-0.525 1.146,-0.525 0.54001,0 0.933,0.392 0.933,0.933 0,0.432 -0.176,0.971 -0.538,1.656 L 93.32,37.93 c -0.5,0.947 -0.837,1.703 -0.98,2.226 -0.07499,0.248 -0.121,0.526 -0.121,0.819 0,1.312 0.821,2.252 1.974,2.252 0.39501,0 0.65901,-0.055 1.08501,-0.258 l 0,-1.18 c -0.413,0.26 -0.58701,0.32 -0.93601,0.32 -0.544,0 -0.90799,-0.349 -0.90799,-0.916 0,-0.191 0.05899,-0.541 0.149,-0.759 0.14499,-0.463 0.291,-0.76 0.84599,-1.823 0.646,-1.234 0.861,-1.703 1.022,-2.224 0.071,-0.278 0.119,-0.571 0.119,-0.871 0,-1.344 -0.83399,-2.274 -2.017,-2.274 -0.45499,0 -0.81699,0.119 -1.277,0.375 l 0,1.301" />
      <path
         id="path6625"
         style="fill:#0000ff;fill-opacity:1;fill-rule:nonzero;stroke:none"
         d="m 96.385,34.918 c 0.37901,-0.352 0.75801,-0.525 1.139,-0.525 0.54,0 0.932,0.392 0.932,0.933 0,0.432 -0.17,0.971 -0.53899,1.656 l -0.496,0.948 c -0.49501,0.947 -0.834,1.703 -0.97901,2.226 -0.07,0.248 -0.117,0.526 -0.117,0.819 0,1.312 0.81801,2.252 1.97001,2.252 0.39498,0 0.65799,-0.055 1.081,-0.258 l 0,-1.18 c -0.40801,0.26 -0.584,0.32 -0.93501,0.32 -0.53799,0 -0.903,-0.349 -0.903,-0.916 0,-0.191 0.05901,-0.541 0.14601,-0.759 0.149,-0.463 0.29399,-0.76 0.84599,-1.823 0.642,-1.234 0.86,-1.703 1.02701,-2.224 0.07,-0.278 0.112,-0.571 0.112,-0.871 0,-1.344 -0.834,-2.274 -2.014,-2.274 -0.456,0 -0.818,0.119 -1.27001,0.375 l 0,1.301" />
      <path
         id="path6627"
         style="fill:#0000ff;fill-opacity:1;fill-rule:nonzero;stroke:none"
         d="m 100.852,43.096 1.258,0 0,-9.723 -1.258,0 0,9.723 z" />
      <path
         id="path6629"
         style="fill:#0000ff;fill-opacity:1;fill-rule:nonzero;stroke:none"
         d="m 103.787,43.096 3.474,0 0,-1.133 -2.219,0 0,-2.971 2.03,0 0,-1.135 -2.03,0 0,-3.353 2.322,0 0,-1.131 -3.577,0 0,9.723" />
      <path
         id="path6631"
         style="fill:#0000ff;fill-opacity:1;fill-rule:nonzero;stroke:none"
         d="m 0.677,28.924 0.557,0 c 0.436,0 0.681,-0.084 0.917,-0.317 0.22,-0.214 0.325,-0.46 0.325,-0.755 0,-0.383 -0.196,-0.705 -0.561,-0.928 0.442,-0.207 0.666,-0.563 0.666,-1.067 0,-0.537 -0.255,-0.947 -0.721,-1.134 -0.199,-0.088 -0.399,-0.12 -0.717,-0.12 l -0.466,0 0,4.321 z m 0.61,-1.836 c 0.397,0 0.628,0.258 0.628,0.699 0,0.387 -0.239,0.625 -0.628,0.625 l -0.053,0 0,-1.324 0.053,0 z m 0.044,-1.953 c 0.435,0 0.667,0.244 0.667,0.722 0,0.463 -0.262,0.723 -0.711,0.723 l -0.053,0 0,-1.445 0.097,0" />
      <path
         id="path6633"
         style="fill:#0000ff;fill-opacity:1;fill-rule:nonzero;stroke:none"
         d="m 4.523,28.924 0.425,0 c 0.265,0 0.412,-0.026 0.561,-0.092 0.387,-0.168 0.627,-0.58 0.627,-1.074 0,-0.453 -0.147,-0.742 -0.45,-0.953 0.144,-0.121 0.26,-0.287 0.344,-0.495 0.078,-0.199 0.179,-0.546 0.247,-0.822 l 0.201,-0.885 -0.582,0 -0.171,0.743 c -0.098,0.437 -0.227,0.832 -0.32,0.998 -0.083,0.148 -0.153,0.193 -0.323,0.195 l 0,-1.936 -0.559,0 0,4.321 z m 0.559,-1.871 0.026,0 c 0.297,0 0.462,0.226 0.462,0.658 0,0.469 -0.157,0.689 -0.488,0.693 l 0,-1.351" />
      <path
         id="path6635"
         style="fill:#0000ff;fill-opacity:1;fill-rule:nonzero;stroke:none"
         d="m 8.768001,28.924 0,-2.899 c 0,-0.789 0.078,-0.968 0.406999,-0.968 0.332001,0 0.409001,0.187 0.409001,0.968 l 0,2.899 0.557999,0 0,-2.922 c 0,-0.537 -0.012,-0.658 -0.103,-0.877 -0.147999,-0.348 -0.489999,-0.58 -0.864,-0.58 -0.368,0 -0.727999,0.246 -0.859999,0.58 C 8.222,25.346 8.21,25.486 8.21,26.002 l 0,2.922 0.558001,0" />
      <path
         id="path6637"
         style="fill:#0000ff;fill-opacity:1;fill-rule:nonzero;stroke:none"
         d="m 12.045,25.289 c 0.169,-0.154 0.336,-0.232 0.505,-0.232 0.238,0 0.416,0.173 0.416,0.408 0,0.197 -0.08,0.441 -0.239,0.742 l -0.222,0.424 c -0.221,0.416 -0.37,0.754 -0.433,0.986 -0.035,0.11 -0.055,0.235 -0.055,0.363 0,0.58 0.364,1.004 0.874,1.004 0.179,0 0.294,-0.025 0.481,-0.115 l 0,-0.527 c -0.178,0.113 -0.257,0.142 -0.416,0.142 -0.24,0 -0.4,-0.16 -0.4,-0.406 0,-0.088 0.028,-0.244 0.066,-0.338 0.063,-0.203 0.13,-0.338 0.374,-0.808 0.287,-0.549 0.385,-0.754 0.455,-0.992 0.033,-0.122 0.052,-0.249 0.052,-0.387 0,-0.594 -0.372,-1.008 -0.895,-1.008 -0.201,0 -0.365,0.051 -0.563,0.17 l 0,0.574" />
      <path
         id="path6639"
         style="fill:#0000ff;fill-opacity:1;fill-rule:nonzero;stroke:none"
         d="m 15.217,25.289 c 0.167,-0.154 0.335,-0.232 0.507,-0.232 0.236,0 0.413,0.173 0.413,0.408 0,0.197 -0.077,0.441 -0.237,0.742 l -0.224,0.424 c -0.22,0.416 -0.369,0.754 -0.435,0.986 -0.03,0.11 -0.049,0.235 -0.049,0.363 0,0.58 0.36,1.004 0.873,1.004 0.18,0 0.293,-0.025 0.481,-0.115 l 0,-0.527 c -0.178,0.113 -0.259,0.142 -0.416,0.142 -0.238,0 -0.4,-0.16 -0.4,-0.406 0,-0.088 0.024,-0.244 0.065,-0.338 0.062,-0.203 0.131,-0.338 0.376,-0.808 0.285,-0.549 0.377,-0.754 0.453,-0.992 0.032,-0.122 0.052,-0.249 0.052,-0.387 0,-0.594 -0.369,-1.008 -0.895,-1.008 -0.203,0 -0.362,0.051 -0.564,0.17 l 0,0.574" />
      <path
         id="path6641"
         style="fill:#0000ff;fill-opacity:1;fill-rule:nonzero;stroke:none"
         d="m 18.573,28.924 1.545,0 0,-0.506 -0.99,0 0,-1.318 0.902,0 0,-0.506 -0.902,0 0,-1.489 1.033,0 0,-0.502 -1.588,0 0,4.321" />
      <path
         id="path6643"
         style="fill:#0000ff;fill-opacity:1;fill-rule:nonzero;stroke:none"
         d="m 22.281,28.924 0.557,0 0,-3.819 1.065,0 0,-0.502 -1.622,0 0,4.321" />
      <path
         id="path6645"
         style="fill:#0000ff;fill-opacity:1;fill-rule:nonzero;stroke:none"
         d="m 25.48,25.289 c 0.17,-0.154 0.337,-0.232 0.506,-0.232 0.24,0 0.416,0.173 0.416,0.408 0,0.197 -0.08,0.441 -0.24,0.742 l -0.222,0.424 c -0.221,0.416 -0.37,0.754 -0.433,0.986 -0.035,0.11 -0.052,0.235 -0.052,0.363 0,0.58 0.362,1.004 0.874,1.004 0.175,0 0.294,-0.025 0.484,-0.115 l 0,-0.527 c -0.185,0.113 -0.263,0.142 -0.417,0.142 -0.241,0 -0.402,-0.16 -0.402,-0.406 0,-0.088 0.022,-0.244 0.064,-0.338 0.068,-0.203 0.129,-0.338 0.378,-0.808 0.285,-0.549 0.381,-0.754 0.451,-0.992 0.032,-0.122 0.053,-0.249 0.053,-0.387 0,-0.594 -0.37,-1.008 -0.894,-1.008 -0.202,0 -0.366,0.051 -0.566,0.17 l 0,0.574" />
      <path
         id="path6647"
         style="fill:#0000ff;fill-opacity:1;fill-rule:nonzero;stroke:none"
         d="m 32.344,28.924 0.558,0 0,-1.916 0.821,0 0,1.916 0.561,0 0,-4.321 -0.561,0 0,1.903 -0.821,0 0,-1.903 -0.558,0 0,4.321" />
      <path
         id="path6649"
         style="fill:#0000ff;fill-opacity:1;fill-rule:nonzero;stroke:none"
         d="m 37.405,28.984 c 0.695,0 1.16,-0.888 1.16,-2.218 0,-1.329 -0.465,-2.221 -1.16,-2.221 -0.702,0 -1.168,0.885 -1.168,2.221 0,1.33 0.466,2.218 1.168,2.218 z m 0,-3.924 c 0.368,0 0.577,0.624 0.577,1.706 0,1.076 -0.209,1.699 -0.577,1.699 -0.375,0 -0.585,-0.613 -0.585,-1.699 0,-1.088 0.21,-1.706 0.585,-1.706" />
      <path
         id="path6651"
         style="fill:#0000ff;fill-opacity:1;fill-rule:nonzero;stroke:none"
         d="m 41.523,28.984 c 0.694,0 1.163,-0.888 1.163,-2.218 0,-1.329 -0.469,-2.221 -1.163,-2.221 -0.7,0 -1.166,0.885 -1.166,2.221 0,1.33 0.466,2.218 1.166,2.218 z m 0,-3.924 c 0.371,0 0.579,0.624 0.579,1.706 0,1.076 -0.208,1.699 -0.579,1.699 -0.376,0 -0.583,-0.613 -0.583,-1.699 0,-1.088 0.207,-1.706 0.583,-1.706" />
      <path
         id="path6653"
         style="fill:#0000ff;fill-opacity:1;fill-rule:nonzero;stroke:none"
         d="m 44.64,28.924 1.343,0 0,-0.506 -0.784,0 0,-1.299 0.739,0 0,-0.521 -0.739,0 0,-1.995 -0.559,0 0,4.321" />
      <path
         id="path6655"
         style="fill:#0000ff;fill-opacity:1;fill-rule:nonzero;stroke:none"
         d="m 48.07,28.924 0.526,0 c 0.389,0 0.61,-0.045 0.806,-0.162 0.526,-0.307 0.777,-0.942 0.777,-1.975 0,-1.049 -0.238,-1.682 -0.745,-2.004 -0.235,-0.142 -0.395,-0.187 -0.845,-0.18 l -0.519,0 0,4.321 z m 0.643,-3.801 c 0.344,0 0.577,0.139 0.701,0.43 0.134,0.304 0.18,0.611 0.18,1.244 0,1.164 -0.238,1.603 -0.866,1.603 l -0.098,0 0,-3.277 0.083,0" />
      <path
         id="path6657"
         style="fill:#0000ff;fill-opacity:1;fill-rule:nonzero;stroke:none"
         d="m 51.968,25.289 c 0.17,-0.154 0.34,-0.232 0.507,-0.232 0.24,0 0.416,0.173 0.416,0.408 0,0.197 -0.078,0.441 -0.239,0.742 l -0.222,0.424 c -0.22,0.416 -0.37,0.754 -0.432,0.986 -0.034,0.11 -0.054,0.235 -0.054,0.363 0,0.58 0.364,1.004 0.875,1.004 0.178,0 0.292,-0.025 0.478,-0.115 l 0,-0.527 c -0.178,0.113 -0.257,0.142 -0.413,0.142 -0.239,0 -0.4,-0.16 -0.4,-0.406 0,-0.088 0.022,-0.244 0.062,-0.338 0.066,-0.203 0.131,-0.338 0.375,-0.808 0.288,-0.549 0.386,-0.754 0.456,-0.992 0.033,-0.122 0.053,-0.249 0.053,-0.387 0,-0.594 -0.37,-1.008 -0.894,-1.008 -0.201,0 -0.367,0.051 -0.568,0.17 l 0,0.574" />
      <path
         id="path6659"
         style="fill:#0000ff;fill-opacity:1;fill-rule:nonzero;stroke:none"
         d="m 55.674,28.418 -0.668,0 0,0.506 1.891,0 0,-0.506 -0.664,0 0,-3.815 -0.559,0 0,3.815" />
      <path
         id="path6661"
         style="fill:#0000ff;fill-opacity:1;fill-rule:nonzero;stroke:none"
         d="m 58.706,28.924 1.542,0 0,-0.506 -0.987,0 0,-1.318 0.903,0 0,-0.506 -0.903,0 0,-1.489 1.032,0 0,-0.502 -1.587,0 0,4.321" />
      <path
         id="path6663"
         style="fill:#0000ff;fill-opacity:1;fill-rule:nonzero;stroke:none"
         d="m 62.389,28.924 0.528,0 c 0.39,0 0.606,-0.045 0.801,-0.162 0.525,-0.307 0.783,-0.942 0.783,-1.975 0,-1.049 -0.244,-1.682 -0.751,-2.004 -0.232,-0.142 -0.393,-0.187 -0.84,-0.18 l -0.521,0 0,4.321 z m 0.641,-3.801 c 0.345,0 0.58,0.139 0.703,0.43 0.135,0.304 0.182,0.611 0.182,1.244 0,1.164 -0.241,1.603 -0.87,1.603 l -0.098,0 0,-3.277 0.083,0" />
      <path
         id="path6665"
         style="fill:#0000ff;fill-opacity:1;fill-rule:nonzero;stroke:none"
         d="m 66.469,28.924 1.54601,0 0,-0.506 -0.98501,0 0,-1.318 0.901,0 0,-0.506 -0.901,0 0,-1.489 1.032,0 0,-0.502 -1.593,0 0,4.321" />
      <path
         id="path6667"
         style="fill:#0000ff;fill-opacity:1;fill-rule:nonzero;stroke:none"
         d="m 70.18301,28.924 0.554,0 0,-3.819 1.06799,0 0,-0.502 -1.62199,0 0,4.321" />
      <path
         id="path6669"
         style="fill:#0000ff;fill-opacity:1;fill-rule:nonzero;stroke:none"
         d="m 73.542,28.924 0.559998,0 0,-4.32 -0.559998,0 0,4.32 z" />
      <path
         id="path6671"
         style="fill:#0000ff;fill-opacity:1;fill-rule:nonzero;stroke:none"
         d="m 75.609,23.828 c 0.10401,-0.027 0.179,-0.033 0.25601,-0.033 0.28799,0 0.36299,0.103 0.36299,0.568 l 0,4.561 0.53701,0 0,-4.19 c 0,-0.587 -0.01901,-0.742 -0.10701,-0.98 -0.119,-0.297 -0.373,-0.457 -0.72499,-0.457 -0.06101,0 -0.14501,0.006 -0.24302,0.027 l -0.02699,0 -0.054,0.504" />
      <path
         id="path6673"
         style="fill:#0000ff;fill-opacity:1;fill-rule:nonzero;stroke:none"
         d="m 78.899,28.924 0.559,0 0,-4.32 -0.559,0 0,4.32 z m 0.579,-2.127 0.61001,2.127 0.57599,0 -0.68699,-2.057 0.85099,-2.264 -0.57599,0 -0.77401,2.194" />
      <path
         id="path6675"
         style="fill:#0000ff;fill-opacity:1;fill-rule:nonzero;stroke:none"
         d="m 88.079,24.807 c -0.27299,-0.186 -0.50599,-0.262 -0.782,-0.262 -0.858,0 -1.409,0.84 -1.409,2.162 0,1.418 0.51901,2.277 1.367,2.277 0.254,0 0.489,-0.091 0.824,-0.31 l 0,-0.604 c -0.34299,0.319 -0.544,0.43 -0.789,0.43 -0.26199,0 -0.461,-0.139 -0.59,-0.393 -0.173,-0.349 -0.233,-0.681 -0.233,-1.414 0,-1.082 0.289,-1.636 0.85401,-1.636 0.07899,0 0.12099,0 0.20299,0.021 l 0,1.326 -0.38299,0 0,0.508 0.93799,0 0,-2.105" />
      <path
         id="path6677"
         style="fill:#0000ff;fill-opacity:1;fill-rule:nonzero;stroke:none"
         d="m 90.108,28.924 1.541,0 0,-0.506 -0.984,0 0,-1.318 0.9,0 0,-0.506 -0.9,0 0,-1.489 1.03201,0 0,-0.502 -1.58901,0 0,4.321" />
      <path
         id="path6679"
         style="fill:#0000ff;fill-opacity:1;fill-rule:nonzero;stroke:none"
         d="m 93.494,28.924 0.57801,0 0.50899,-2.908 0.01501,0 0.572,2.908 0.40199,0 0.565,-2.969 0.01,0 0.52601,2.969 0.60299,0 -0.94401,-4.379 -0.39999,0 -0.55199,2.89 -0.01001,0 -0.57,-2.89 -0.378,0 -0.926,4.379" />
      <path
         id="path6681"
         style="fill:#0000ff;fill-opacity:1;fill-rule:nonzero;stroke:none"
         d="m 99.08801,28.924 1.54099,0 0,-0.506 -0.985,0 0,-1.318 0.9,0 0,-0.506 -0.9,0 0,-1.489 1.028,0 0,-0.502 -1.58399,0 0,4.321" />
      <path
         id="path6683"
         style="fill:#0000ff;fill-opacity:1;fill-rule:nonzero;stroke:none"
         d="m 102.613,25.289 c 0.165,-0.154 0.339,-0.232 0.507,-0.232 0.238,0 0.413,0.173 0.413,0.408 0,0.197 -0.077,0.441 -0.241,0.742 l -0.221,0.424 c -0.218,0.416 -0.365,0.754 -0.433,0.986 -0.031,0.11 -0.049,0.235 -0.049,0.363 0,0.58 0.363,1.004 0.874,1.004 0.175,0 0.292,-0.025 0.479,-0.115 l 0,-0.527 c -0.183,0.113 -0.259,0.142 -0.418,0.142 -0.234,0 -0.396,-0.16 -0.396,-0.406 0,-0.088 0.025,-0.244 0.064,-0.338 0.061,-0.203 0.129,-0.338 0.377,-0.808 0.283,-0.549 0.381,-0.754 0.452,-0.992 0.034,-0.122 0.053,-0.249 0.053,-0.387 0,-0.594 -0.37,-1.008 -0.896,-1.008 -0.205,0 -0.364,0.051 -0.565,0.17 l 0,0.574" />
      <path
         id="path6685"
         style="fill:#0000ff;fill-opacity:1;fill-rule:nonzero;stroke:none"
         d="m 106.319,28.418 -0.668,0 0,0.506 1.895,0 0,-0.506 -0.668,0 0,-3.815 -0.559,0 0,3.815" />
    </g>
    <path
       id="path6531"
       style="fill:#ffffff;fill-opacity:1;fill-rule:nonzero;stroke:none"
       d="m 430.16302,23.355012 c -1.47428,0.05498 -3.7944,0.366791 -6.24392,1.168823 0.94189,-1.872402 -0.68391,-4.12165 -4.41565,-3.566192 2.29333,-1.69805 7.04445,-6.014969 7.04849,-9.730383 0.003,-3.1433271 -1.72177,-3.6041278 -2.5651,-2.7657745 -0.47516,0.4741267 2.56269,4.9818215 -6.10499,12.1612025 5.25917,-6.133212 7.75921,-18.7101076 2.36091,-14.7082252 0.61171,4.0367019 -0.73427,10.4004862 -4.54117,16.4881252 1.38705,-18.1292274 5.20907,-17.8798953 5.20972,-18.4802708 3.1e-4,-0.2828995 -0.433,-0.7140066 -1.61181,-0.664994 -5.20246,0.2269545 -5.15571,12.1685208 -4.71525,17.5912458 -2.84546,-5.095288 -0.43012,-14.940721 -2.0615,-14.9424933 -2.56182,-0.00278 -3.06996,7.6852533 0.1671,14.0005793 -0.84465,-0.830757 -1.50893,-2.770914 -3.91358,-2.773527 -2.39521,-0.0026 -4.68645,2.65731 -3.62715,2.658461 4.07061,0.0044 6.86311,1.770865 6.85728,7.142812 -0.004,3.70284 0.5567,5.476288 1.83881,5.81716 -0.34297,0.323391 -0.40643,0.870262 -0.56077,1.15928 -1.00272,-0.0011 -2.17259,-2.385005 -2.16977,-4.981394 0.003,-2.602675 -0.83374,-7.981823 -6.24341,-7.987701 -3.57711,-0.0039 -6.37152,2.878656 -6.37332,4.53519 -0.002,1.656534 0.82671,2.88019 2.78815,2.88232 2.22548,0.0024 3.97024,-3.088724 6.19886,-3.086303 3.52367,0.0038 1.27142,10.179488 5.46118,10.454366 -0.67264,5.757852 2.45111,9.310067 4.01437,8.371909 1.25186,-0.753039 -1.05382,-2.15747 -1.05225,-3.603401 0.003,-2.549238 2.13265,-7.133044 5.81348,-7.129046 2.851,0.0031 2.96195,2.040097 5.41374,2.042761 1.62196,0.0018 2.07223,-0.714428 2.07348,-1.861743 0.001,-1.178748 -2.23159,-3.054599 -5.46922,-3.058116 -9.78517,-0.01063 -8.9755,9.869738 -9.17581,9.071115 -1.53366,-6.049436 3.65049,-12.563073 12.08428,-12.777086 7.81139,-0.192687 6.86228,5.429701 10.76381,4.827277 1.44618,-0.227892 2.52113,-0.163858 2.52354,-2.38619 0.002,-2.203473 -2.72488,-6.141886 -9.77253,-5.869787 z m -15.14692,7.955032 c -2.8256,-3.133827 3.86279,-5.449483 7.18288,-6.131122 -2.81456,1.185122 -5.56392,3.105853 -7.18288,6.131122" />
  </g>
</svg>
