<?xml version="1.0" encoding="UTF-8" standalone="no"?>
<!-- Created with Inkscape (http://www.inkscape.org/) -->

<svg
   xmlns:dc="http://purl.org/dc/elements/1.1/"
   xmlns:cc="http://creativecommons.org/ns#"
   xmlns:rdf="http://www.w3.org/1999/02/22-rdf-syntax-ns#"
   xmlns:svg="http://www.w3.org/2000/svg"
   xmlns="http://www.w3.org/2000/svg"
   xmlns:sodipodi="http://sodipodi.sourceforge.net/DTD/sodipodi-0.dtd"
   xmlns:inkscape="http://www.inkscape.org/namespaces/inkscape"
   width="210mm"
   height="297mm"
   id="svg10123"
   version="1.1"
   inkscape:version="0.47 r22583"
   sodipodi:docname="Nouveau document 8">
  <defs
     id="defs10125">
    <inkscape:perspective
       sodipodi:type="inkscape:persp3d"
       inkscape:vp_x="0 : 526.18109 : 1"
       inkscape:vp_y="0 : 1000 : 0"
       inkscape:vp_z="744.09448 : 526.18109 : 1"
       inkscape:persp3d-origin="372.04724 : 350.78739 : 1"
       id="perspective10131" />
    <inkscape:perspective
       id="perspective10051"
       inkscape:persp3d-origin="0.5 : 0.33333333 : 1"
       inkscape:vp_z="1 : 0.5 : 1"
       inkscape:vp_y="0 : 1000 : 0"
       inkscape:vp_x="0 : 0.5 : 1"
       sodipodi:type="inkscape:persp3d" />
  </defs>
  <sodipodi:namedview
     id="base"
     pagecolor="#ffffff"
     bordercolor="#666666"
     borderopacity="1.0"
     inkscape:pageopacity="0.0"
     inkscape:pageshadow="2"
     inkscape:zoom="0.61980799"
     inkscape:cx="530.33663"
     inkscape:cy="1023.2775"
     inkscape:document-units="px"
     inkscape:current-layer="layer1"
     showgrid="false"
     inkscape:window-width="1278"
     inkscape:window-height="833"
     inkscape:window-x="0"
     inkscape:window-y="19"
     inkscape:window-maximized="1" />
  <metadata
     id="metadata10128">
    <rdf:RDF>
      <cc:Work
         rdf:about="">
        <dc:format>image/svg+xml</dc:format>
        <dc:type
           rdf:resource="http://purl.org/dc/dcmitype/StillImage" />
        <dc:title></dc:title>
      </cc:Work>
    </rdf:RDF>
  </metadata>
  <g
     inkscape:label="Calque 1"
     inkscape:groupmode="layer"
     id="layer1">
    <g
       style="display:inline"
       id="g5696"
       transform="matrix(1.041198,-0.00114801,0.00114801,1.041198,-404.41292,627.44538)">
      <g
         transform="translate(3.9816901,-266.77323)"
         id="g4773">
        <path
           id="path4436"
           style="fill:#ff3200;fill-opacity:1;fill-rule:nonzero;stroke:none"
           d="m 895.7016,-339.15263 -1.64625,2.47 c -4.10625,0.8125 -9.05625,0 -12.35,1.64625 -2.45875,4.94 -0.82375,9.06875 0.8225,13.17375 0.8125,-1.64625 0.8125,-2.45875 1.6475,-3.2925 l 7.41,0.8225 c 1.64625,1.6475 1.6575,4.1175 0.82375,5.76375 -1.6475,3.29375 -4.93,3.2825 -7.41,4.1175 -0.8125,-0.835 -0.8125,-1.6475 -1.6475,-1.6475 -0.8125,1.6475 -0.82375,3.2825 -0.82375,5.76375 4.10625,0.8125 8.23375,-1.63625 11.5275,-2.47 2.48125,-2.45875 2.47,-4.93 2.47,-7.41 1.6475,0 2.45875,0.83375 3.29375,0 4.10625,1.64625 7.42125,4.1275 8.23375,8.23375 0.83375,4.105 0,9.05625 -3.29375,12.35 0,-1.64625 -0.0113,-4.1175 0.82375,-5.76375 0.8125,-4.1275 -0.835,-6.58625 -3.29375,-9.88 -0.8125,-0.8125 -1.6475,-2.45875 -3.29375,-1.6475 0.835,2.48125 -3.29375,3.29375 0,4.94125 4.94,5.7525 -0.8225,12.35 -0.8225,18.93625 l -2.47125,1.6475 c -1.64625,-4.10625 0.835,-7.4 1.6475,-11.5275 0.83375,-3.29375 0.83375,-6.5975 -1.6475,-9.05625 -1.64625,1.64625 -2.47,1.6575 -4.11625,2.47 5.7525,4.94 0.82375,9.86875 -0.82375,13.9975 -0.8125,4.94 1.6475,13.9525 3.29375,16.41125 2.48125,-7.39875 9.04625,-12.30625 14.82,-18.05875 8.23375,-8.23375 6.5875,-21.41875 4.94,-32.11125 l -0.0537,-0.21875 -0.11,-0.165 -0.055,-0.165 -0.055,-0.22 0,-0.16375 -0.055,-0.165 -0.055,-0.165 0,-1.1525 0.055,-0.275 0.055,-0.27375 0.11,-0.275 0.11,-0.27375 0.11,-0.275 0.10875,-0.27375 0.11,-0.275 0.165,-0.27375 0.165,-0.22 0.32875,-0.49375 0.33,-0.49375 0.27375,-0.495 0.165,-0.27375 0.11,-0.22 0.16375,-0.275 0.11,-0.27375 0.11,-0.275 0.055,-0.27375 0.11,-0.275 0.055,-0.27375 0.055,-0.275 0,-0.32875 c -6.5875,-0.8125 -13.9975,-0.82375 -20.585,-0.82375 l -5e-5,0 z m 0.98875,4.61125 1.81125,0 0.33,0.0537 0.16375,0.0563 0.32875,0 0.16625,0.0537 0.10875,0.055 0.275,0 0.165,0.055 0.10875,0 0.11,0.055 0.33,0 -4.0625,3.29375 c -0.835,0 0.0113,0 -0.82375,-3.29375 l 0.165,-0.055 0.165,-0.055 0.165,-0.055 0.16375,-0.0537 0.165,-0.0563 0.165,-0.0537" />
        <path
           id="path4438"
           style="fill:#0000ff;fill-opacity:1;stroke:none"
           d="m 895.7016,-339.15263 -1.64625,2.47 c -4.10625,0.8125 -9.05625,0 -12.35,1.64625 -2.45875,4.94 -0.82375,9.06875 0.8225,13.17375 0.8125,-1.64625 0.8125,-2.45875 1.6475,-3.2925 l 7.41,0.8225 c 1.64625,1.6475 1.6575,4.1175 0.82375,5.76375 -1.6475,3.29375 -4.93,3.2825 -7.41,4.1175 -0.8125,-0.835 -0.8125,-1.6475 -1.6475,-1.6475 -0.8125,1.6475 -0.82375,3.2825 -0.82375,5.76375 4.10625,0.8125 8.23375,-1.63625 11.5275,-2.47 2.48125,-2.45875 2.47,-4.93 2.47,-7.41 1.6475,0 2.45875,0.83375 3.29375,0 4.10625,1.64625 7.42125,4.1275 8.23375,8.23375 0.83375,4.105 0,9.05625 -3.29375,12.35 0,-1.64625 -0.0113,-4.1175 0.82375,-5.76375 0.8125,-4.1275 -0.835,-6.58625 -3.29375,-9.88 -0.8125,-0.8125 -1.6475,-2.45875 -3.29375,-1.6475 0.835,2.48125 -3.29375,3.29375 0,4.94125 4.94,5.7525 -0.8225,12.35 -0.8225,18.93625 l -2.47125,1.6475 c -1.64625,-4.10625 0.835,-7.4 1.6475,-11.5275 0.83375,-3.29375 0.83375,-6.5975 -1.6475,-9.05625 -1.64625,1.64625 -2.47,1.6575 -4.11625,2.47 5.7525,4.94 0.82375,9.86875 -0.82375,13.9975 -0.8125,4.94 1.6475,13.9525 3.29375,16.41125 2.48125,-7.39875 9.04625,-12.30625 14.82,-18.05875 8.23375,-8.23375 6.5875,-21.41875 4.94,-32.11125 l -0.0537,-0.21875 -0.11,-0.165 -0.055,-0.165 -0.055,-0.22 0,-0.16375 -0.055,-0.165 -0.055,-0.165 0,-1.1525 0.055,-0.275 0.055,-0.27375 0.11,-0.275 0.11,-0.27375 0.11,-0.275 0.10875,-0.27375 0.11,-0.275 0.165,-0.27375 0.165,-0.22 0.32875,-0.49375 0.33,-0.49375 0.27375,-0.495 0.165,-0.27375 0.11,-0.22 0.16375,-0.275 0.11,-0.27375 0.11,-0.275 0.055,-0.27375 0.11,-0.275 0.055,-0.27375 0.055,-0.275 0,-0.32875 c -6.5875,-0.8125 -13.9975,-0.82375 -20.585,-0.82375 l -5e-5,0 z m 0.98875,4.61125 1.81125,0 0.33,0.0537 0.16375,0.0563 0.32875,0 0.16625,0.0537 0.10875,0.055 0.275,0 0.165,0.055 0.10875,0 0.11,0.055 0.33,0 -4.0625,3.29375 c -0.835,0 0.0113,0 -0.82375,-3.29375 l 0.165,-0.055 0.165,-0.055 0.165,-0.055 0.16375,-0.0537 0.165,-0.0563 0.165,-0.0537 0,0 z" />
        <path
           id="path4440"
           style="fill:#ff3200;fill-opacity:1;fill-rule:nonzero;stroke:none"
           d="m 942.5866,-327.63013 0.0225,0.24125 0,0.43875 0.0213,0.22 0.0225,0.1975 0.0225,0.22 0.0213,0.1975 0.0438,0.1975 0.0225,0.1975 0.0438,0.1975 0.0438,0.17625 0.0437,0.1975 0.11,0.35125 0.11,0.35125 0.11,0.35125 0.13125,0.32875 0.1325,0.33 0.15375,0.30625 0.1525,0.33 0.1325,0.3075 0.3075,0.615 -0.8125,18.92625 c 0,3.2925 -2.48125,5.77375 -5.7525,7.42125 -8.23375,4.105 -16.4675,5.7525 -24.70125,10.6925 -0.8125,0.8125 -1.64625,2.45875 -0.8125,4.105 l 0.8125,1.6475 c 0.835,-0.8125 1.6475,-2.46 1.6475,-3.29375 2.48,-2.45875 7.42125,-3.29375 11.52625,-4.94 7.4,-3.27125 15.6325,-4.91875 17.28,-10.6925 1.64625,2.48125 0.8125,5.77375 -0.835,7.42125 -8.21125,4.105 -16.445,4.9175 -23.84375,9.8575 -1.6475,0.835 -2.48125,2.48125 -2.48125,4.10625 0.83375,0.83375 2.48125,1.64625 2.48125,0 0,-0.8125 0.8125,-1.625 1.64625,-2.45875 6.565,-4.10625 16.445,-3.29375 23.0325,-9.04625 l 0.8125,-1.64625 c 0,2.45875 0,4.94 -0.8125,6.58625 -3.29375,2.45875 -6.5875,2.45875 -9.88,4.10625 l -9.04625,4.105 -0.8125,1.6475 c 3.27125,1.64625 6.565,4.94 7.39875,9.04625 0,4.1275 -0.83375,8.2325 -4.94,10.6925 -3.2925,1.64625 -6.58625,1.64625 -9.88,2.48 l 19.76,18.92625 9.04625,0 0,41.95875 -8.23375,9.04625 -3.2925,-3.27125 c 2.48,-2.4825 4.1275,-3.29375 7.39875,-6.5875 l 0,-35.39375 -19.73875,-0.81125 -44.4175,-42.7925 13.1525,-13.1525 c 3.2925,11.505 12.33875,18.0925 21.385,27.9725 5.77375,-0.835 10.715,0 14.0075,-4.94 0,-1.6475 0,-4.1275 -0.83375,-5.7525 -4.94,-5.775 -13.17375,-5.775 -16.4675,-11.5275 -1.64625,-3.29375 -1.64625,-7.39875 0.835,-10.6925 l 2.45875,-1.64625 24.7,-10.6925 c 1.6475,-0.835 2.46,-3.29375 2.46,-4.94125 0,-3.2925 0,-16.46625 0,-16.46625 -0.8125,-2.46 -2.46,-4.91875 -5.7525,-5.7525 -1.6475,0 -3.29375,0.83375 -4.1275,2.45875 -0.8125,0.83375 -0.8125,1.64625 -0.8125,3.29375 2.45875,2.48125 4.94,4.1275 8.2325,7.42125 l 0,6.565 -12.33875,-10.6925 c -1.64625,-3.29375 -1.64625,-7.4 0.8125,-10.69375 2.45875,-3.2925 7.39875,-4.105 11.52625,-3.2925 2.46,0.83375 4.91875,2.48 6.565,4.94" />
        <path
           id="path4442"
           style="fill:#0000ff;fill-opacity:1;stroke:none"
           d="m 942.5866,-327.63013 0.0225,0.24125 0,0.43875 0.0213,0.22 0.0225,0.1975 0.0225,0.22 0.0213,0.1975 0.0438,0.1975 0.0225,0.1975 0.0438,0.1975 0.0438,0.17625 0.0437,0.1975 0.11,0.35125 0.11,0.35125 0.11,0.35125 0.13125,0.32875 0.1325,0.33 0.15375,0.30625 0.1525,0.33 0.1325,0.3075 0.3075,0.615 -0.8125,18.92625 c 0,3.2925 -2.48125,5.77375 -5.7525,7.42125 -8.23375,4.105 -16.4675,5.7525 -24.70125,10.6925 -0.8125,0.8125 -1.64625,2.45875 -0.8125,4.105 l 0.8125,1.6475 c 0.835,-0.8125 1.6475,-2.46 1.6475,-3.29375 2.48,-2.45875 7.42125,-3.29375 11.52625,-4.94 7.4,-3.27125 15.6325,-4.91875 17.28,-10.6925 1.64625,2.48125 0.8125,5.77375 -0.835,7.42125 -8.21125,4.105 -16.445,4.9175 -23.84375,9.8575 -1.6475,0.835 -2.48125,2.48125 -2.48125,4.10625 0.83375,0.83375 2.48125,1.64625 2.48125,0 0,-0.8125 0.8125,-1.625 1.64625,-2.45875 6.565,-4.10625 16.445,-3.29375 23.0325,-9.04625 l 0.8125,-1.64625 c 0,2.45875 0,4.94 -0.8125,6.58625 -3.29375,2.45875 -6.5875,2.45875 -9.88,4.10625 l -9.04625,4.105 -0.8125,1.6475 c 3.27125,1.64625 6.565,4.94 7.39875,9.04625 0,4.1275 -0.83375,8.2325 -4.94,10.6925 -3.2925,1.64625 -6.58625,1.64625 -9.88,2.48 l 19.76,18.92625 9.04625,0 0,41.95875 -8.23375,9.04625 -3.2925,-3.27125 c 2.48,-2.4825 4.1275,-3.29375 7.39875,-6.5875 l 0,-35.39375 -19.73875,-0.81125 -44.4175,-42.7925 13.1525,-13.1525 c 3.2925,11.505 12.33875,18.0925 21.385,27.9725 5.77375,-0.835 10.715,0 14.0075,-4.94 0,-1.6475 0,-4.1275 -0.83375,-5.7525 -4.94,-5.775 -13.17375,-5.775 -16.4675,-11.5275 -1.64625,-3.29375 -1.64625,-7.39875 0.835,-10.6925 l 2.45875,-1.64625 24.7,-10.6925 c 1.6475,-0.835 2.46,-3.29375 2.46,-4.94125 0,-3.2925 0,-16.46625 0,-16.46625 -0.8125,-2.46 -2.46,-4.91875 -5.7525,-5.7525 -1.6475,0 -3.29375,0.83375 -4.1275,2.45875 -0.8125,0.83375 -0.8125,1.64625 -0.8125,3.29375 2.45875,2.48125 4.94,4.1275 8.2325,7.42125 l 0,6.565 -12.33875,-10.6925 c -1.64625,-3.29375 -1.64625,-7.4 0.8125,-10.69375 2.45875,-3.2925 7.39875,-4.105 11.52625,-3.2925 2.46,0.83375 4.91875,2.48 6.565,4.94 l -2e-4,0 z" />
        <path
           id="path4444"
           style="fill:#ff3200;fill-opacity:1;fill-rule:nonzero;stroke:none"
           d="m 839.7441,-326.79638 0.0888,0.0663 0.065,0.0875 0.0663,0.0888 0.0662,0.0875 0.0438,0.10875 0.065,0.0887 0.045,0.11 0.0438,0.10875 0.0438,0.0888 0.0437,0.11 0.0225,0.13125 0.0438,0.11 0.0212,0.11 0.0225,0.10875 0.0225,0.11 0.0213,0.1325 0.0437,0.21875 0.0213,0.22 0.0225,0.24125 0,0.1975 0.0225,0.11 0,0.63625 -4.94,0 c 0,-1.64625 0.8125,-4.105 -0.835,-4.9175 2.48125,-0.835 4.94,0.8125 4.94,1.64625" />
        <path
           id="path4446"
           style="fill:#0000ff;fill-opacity:1;stroke:none"
           d="m 839.7441,-326.79638 0.0888,0.0663 0.065,0.0875 0.0663,0.0888 0.0662,0.0875 0.0438,0.10875 0.065,0.0887 0.045,0.11 0.0438,0.10875 0.0438,0.0888 0.0437,0.11 0.0225,0.13125 0.0438,0.11 0.0212,0.11 0.0225,0.10875 0.0225,0.11 0.0213,0.1325 0.0437,0.21875 0.0213,0.22 0.0225,0.24125 0,0.1975 0.0225,0.11 0,0.63625 -4.94,0 c 0,-1.64625 0.8125,-4.105 -0.835,-4.9175 2.48125,-0.835 4.94,0.8125 4.94,1.64625 l -2e-4,-10e-5 z" />
        <path
           id="path4448"
           style="fill:#ff3200;fill-opacity:1;fill-rule:nonzero;stroke:none"
           d="m 877.5966,-320.23138 0.395,0.0663 0.37375,0.0662 0.37375,0.0437 0.3725,0.0213 0.35125,0.0225 0.37375,0.0212 0.35125,0 0.37375,-0.0212 0.35,-0.0225 0.3525,-0.0213 0.7025,-0.0662 0.7025,-0.0875 0.68,-0.11 0.7025,-0.1325 0.7025,-0.10875 0.7025,-0.1325 0.7025,-0.11 0.725,-0.10875 0.725,-0.0662 0.3725,-0.0225 0.37375,-0.0213 0.37375,-0.0225 0.395,0 c 0,0.8125 0.8125,0.8125 1.625,0.8125 -5.7525,2.48125 -12.3175,3.29375 -19.73875,2.48125 -4.91875,0 -9.04625,-3.29375 -12.34,-7.42125 2.48125,-1.625 4.94,-3.27125 8.23375,-2.45875 4.94,1.64625 5.7525,6.58625 10.6925,7.39875" />
        <path
           id="path4450"
           style="fill:#0000ff;fill-opacity:1;stroke:none"
           d="m 877.5966,-320.23138 0.395,0.0663 0.37375,0.0662 0.37375,0.0437 0.3725,0.0213 0.35125,0.0225 0.37375,0.0212 0.35125,0 0.37375,-0.0212 0.35,-0.0225 0.3525,-0.0213 0.7025,-0.0662 0.7025,-0.0875 0.68,-0.11 0.7025,-0.1325 0.7025,-0.10875 0.7025,-0.1325 0.7025,-0.11 0.725,-0.10875 0.725,-0.0662 0.3725,-0.0225 0.37375,-0.0213 0.37375,-0.0225 0.395,0 c 0,0.8125 0.8125,0.8125 1.625,0.8125 -5.7525,2.48125 -12.3175,3.29375 -19.73875,2.48125 -4.91875,0 -9.04625,-3.29375 -12.34,-7.42125 2.48125,-1.625 4.94,-3.27125 8.23375,-2.45875 4.94,1.64625 5.7525,6.58625 10.6925,7.39875 l 0,0 z" />
        <path
           id="path4452"
           style="fill:#ff3200;fill-opacity:1;fill-rule:nonzero;stroke:none"
           d="m 833.15785,-311.18513 -9.04625,0 0,-4.10625 4.1275,0 0,-5.7525 4.91875,0 0,9.85875" />
        <path
           id="path4454"
           style="fill:#0000ff;fill-opacity:1;stroke:none"
           d="m 833.15785,-311.18513 -9.04625,0 0,-4.10625 4.1275,0 0,-5.7525 4.91875,0 0,9.85875 0,0 z" />
        <path
           id="path4456"
           style="fill:#ff3200;fill-opacity:1;fill-rule:nonzero;stroke:none"
           d="m 840.5791,-312.83138 32.9125,32.93375 c 0.81125,0 1.64625,-0.835 1.64625,-1.6475 0,-5.77375 -2.48125,-13.1725 2.45875,-18.11375 -1.64625,0 -3.29375,1.6475 -4.105,2.48125 -3.29375,3.29375 -1.6475,8.2125 -1.6475,12.34 -2.48125,-3.29375 -6.58625,-4.1275 -5.7525,-9.88 0,-4.10625 2.45875,-7.4 6.565,-9.04625 5.775,-2.48125 12.34,-1.6475 18.0925,-3.29375 2.48,3.29375 -2.46,6.5875 -2.46,9.88 -0.8125,3.29375 -0.8125,7.4 0,10.6925 l -4.105,3.29375 c -0.835,-5.77375 -3.29375,-11.52625 1.64625,-17.27875 -0.83375,0 -3.29375,0 -3.29375,0 -4.105,4.105 -3.2925,11.505 -1.64625,16.445 2.45875,5.77375 -4.10625,8.2325 -6.5875,11.52625 l -38.66375,-37.8525 0,-10.6925 4.94,0 0,8.2125" />
        <path
           id="path4458"
           style="fill:#0000ff;fill-opacity:1;stroke:none"
           d="m 840.5791,-312.83138 32.9125,32.93375 c 0.81125,0 1.64625,-0.835 1.64625,-1.6475 0,-5.77375 -2.48125,-13.1725 2.45875,-18.11375 -1.64625,0 -3.29375,1.6475 -4.105,2.48125 -3.29375,3.29375 -1.6475,8.2125 -1.6475,12.34 -2.48125,-3.29375 -6.58625,-4.1275 -5.7525,-9.88 0,-4.10625 2.45875,-7.4 6.565,-9.04625 5.775,-2.48125 12.34,-1.6475 18.0925,-3.29375 2.48,3.29375 -2.46,6.5875 -2.46,9.88 -0.8125,3.29375 -0.8125,7.4 0,10.6925 l -4.105,3.29375 c -0.835,-5.77375 -3.29375,-11.52625 1.64625,-17.27875 -0.83375,0 -3.29375,0 -3.29375,0 -4.105,4.105 -3.2925,11.505 -1.64625,16.445 2.45875,5.77375 -4.10625,8.2325 -6.5875,11.52625 l -38.66375,-37.8525 0,-10.6925 4.94,0 0,8.2125 0,0 z" />
        <path
           id="path4460"
           style="fill:#ff3200;fill-opacity:1;fill-rule:nonzero;stroke:none"
           d="m 936.0216,-304.59888 -0.0438,0.19875 -0.0438,0.175 -0.0437,0.175 -0.0438,0.17625 -0.0662,0.15375 -0.0438,0.15375 -0.0662,0.15375 -0.065,0.15375 -0.0663,0.13125 -0.0662,0.13125 -0.0662,0.11 -0.065,0.1325 -0.0888,0.11 -0.065,0.11 -0.0875,0.0875 -0.0663,0.10875 -0.0875,0.0888 -0.0888,0.0875 -0.065,0.0875 -0.0888,0.0662 -0.0875,0.0663 -0.0875,0.0662 -0.0875,0.065 -0.0875,0.0663 -0.0888,0.0437 -0.0875,0.065 -0.17625,0.0888 -0.175,0.0663 -0.17625,0.065 -0.175,0.0662 -0.17625,0.0437 -0.15375,0.0225 -0.15375,0.0213 -0.15375,0.0225 -0.52625,0 -0.11,-0.0225 -0.0875,0 -0.0662,-0.0213 -0.0875,0 -0.0225,-0.0225 -0.0213,0 -0.0225,0 0,0 c -2.45875,-2.45875 -12.33875,-6.58625 -9.045,-13.98625 l 13.1725,10.6925" />
        <path
           id="path4462"
           style="fill:#0000ff;fill-opacity:1;stroke:none"
           d="m 936.0216,-304.59888 -0.0438,0.19875 -0.0438,0.175 -0.0437,0.175 -0.0438,0.17625 -0.0662,0.15375 -0.0438,0.15375 -0.0662,0.15375 -0.065,0.15375 -0.0663,0.13125 -0.0662,0.13125 -0.0662,0.11 -0.065,0.1325 -0.0888,0.11 -0.065,0.11 -0.0875,0.0875 -0.0663,0.10875 -0.0875,0.0888 -0.0888,0.0875 -0.065,0.0875 -0.0888,0.0662 -0.0875,0.0663 -0.0875,0.0662 -0.0875,0.065 -0.0875,0.0663 -0.0888,0.0437 -0.0875,0.065 -0.17625,0.0888 -0.175,0.0663 -0.17625,0.065 -0.175,0.0662 -0.17625,0.0437 -0.15375,0.0225 -0.15375,0.0213 -0.15375,0.0225 -0.52625,0 -0.11,-0.0225 -0.0875,0 -0.0662,-0.0213 -0.0875,0 -0.0225,-0.0225 -0.0213,0 -0.0225,0 0,0 c -2.45875,-2.45875 -12.33875,-6.58625 -9.045,-13.98625 l 13.1725,10.6925 2.5e-4,0 z" />
        <path
           id="path4464"
           style="fill:#ff3200;fill-opacity:1;fill-rule:nonzero;stroke:none"
           d="m 822.46535,-311.18513 -0.17625,0 -0.0437,0.0213 -0.5925,0 -0.17625,0.0225 -0.395,0 -0.1975,0.0225 -0.22,0.0213 -0.21875,0 -0.24125,0.0225 -0.22,0.0213 -0.24125,0.0225 -0.48375,0.0663 -0.4825,0.065 -0.2425,0.0225 -0.21875,0.0437 -0.24125,0.0438 -0.22,0.0662 -0.21875,0.0437 -0.19875,0.065 -0.1975,0.045 -0.175,0.065 -0.17625,0.0663 -0.175,0.0875 c 0,-2.48 0.83375,-4.105 2.48,-4.94 0.8125,0 2.46,-0.8125 3.2725,0 l 0,4.10625" />
        <path
           id="path4466"
           style="fill:#0000ff;fill-opacity:1;stroke:none"
           d="m 822.46535,-311.18513 -0.17625,0 -0.0437,0.0213 -0.5925,0 -0.17625,0.0225 -0.395,0 -0.1975,0.0225 -0.22,0.0213 -0.21875,0 -0.24125,0.0225 -0.22,0.0213 -0.24125,0.0225 -0.48375,0.0663 -0.4825,0.065 -0.2425,0.0225 -0.21875,0.0437 -0.24125,0.0438 -0.22,0.0662 -0.21875,0.0437 -0.19875,0.065 -0.1975,0.045 -0.175,0.065 -0.17625,0.0663 -0.175,0.0875 c 0,-2.48 0.83375,-4.105 2.48,-4.94 0.8125,0 2.46,-0.8125 3.2725,0 l 0,4.10625 -5e-5,-1.5e-4 z" />
        <path
           id="path4468"
           style="fill:#ff3200;fill-opacity:1;fill-rule:nonzero;stroke:none"
           d="m 866.9041,-275.79263 -14.79875,14.79875 -20.595,0 c -2.45875,-1.64625 -7.39875,-6.565 -7.39875,-6.565 l 3.29375,-3.2925 5.7525,5.7525 17.27875,0 9.06875,-10.69375 -28.80625,-28.80625 -6.5875,0 0,-4.105 9.04625,0 33.74625,32.91125" />
        <path
           id="path4470"
           style="fill:#0000ff;fill-opacity:1;stroke:none"
           d="m 866.9041,-275.79263 -14.79875,14.79875 -20.595,0 c -2.45875,-1.64625 -7.39875,-6.565 -7.39875,-6.565 l 3.29375,-3.2925 5.7525,5.7525 17.27875,0 9.06875,-10.69375 -28.80625,-28.80625 -6.5875,0 0,-4.105 9.04625,0 33.74625,32.91125 0,0 z" />
        <path
           id="path4472"
           style="fill:#ff3200;fill-opacity:1;fill-rule:nonzero;stroke:none"
           d="m 894.0416,-248.65388 -20.55,21.4075 c -1.6475,5.7525 -0.835,15.6325 -0.835,18.09125 l -5.7525,0 -14.79875,14.82 -12.36125,0 0,-4.94 10.6925,0 11.5275,-11.5275 c 0.83375,-9.8575 -4.10625,-24.6775 6.58625,-31.265 4.94125,-3.2925 10.69375,-6.58625 16.44625,-9.04625 -6.565,-5.7525 -10.69375,-9.88 -16.44625,-15.6325 l -13.1725,14.79875 -22.22,0 -4.10625,3.29375 -3.29375,-3.29375 5.7525,-5.7525 22.22,0 15.6325,-16.445 24.67875,25.49125" />
        <path
           id="path4474"
           style="fill:#0000ff;fill-opacity:1;stroke:none"
           d="m 894.0416,-248.65388 -20.55,21.4075 c -1.6475,5.7525 -0.835,15.6325 -0.835,18.09125 l -5.7525,0 -14.79875,14.82 -12.36125,0 0,-4.94 10.6925,0 11.5275,-11.5275 c 0.83375,-9.8575 -4.10625,-24.6775 6.58625,-31.265 4.94125,-3.2925 10.69375,-6.58625 16.44625,-9.04625 -6.565,-5.7525 -10.69375,-9.88 -16.44625,-15.6325 l -13.1725,14.79875 -22.22,0 -4.10625,3.29375 -3.29375,-3.29375 5.7525,-5.7525 22.22,0 15.6325,-16.445 24.67875,25.49125 0,0 z" />
        <path
           id="path4476"
           style="fill:#ff3200;fill-opacity:1;fill-rule:nonzero;stroke:none"
           d="m 829.0516,-258.51263 -4.94,4.91875 -3.29375,-2.46 2.48125,-2.45875 -4.10625,-4.1275 3.2725,-3.27125 c 2.48125,3.27125 4.1275,4.9175 6.58625,7.39875" />
        <path
           id="path4478"
           style="fill:#0000ff;fill-opacity:1;stroke:none"
           d="m 829.0516,-258.51263 -4.94,4.91875 -3.29375,-2.46 2.48125,-2.45875 -4.10625,-4.1275 3.2725,-3.27125 c 2.48125,3.27125 4.1275,4.9175 6.58625,7.39875 l 0,0 z" />
        <path
           id="path4480"
           style="fill:#ff3200;fill-opacity:1;fill-rule:nonzero;stroke:none"
           d="m 937.6691,-223.95388 0,31.26625 -13.98625,0 0,-4.1275 9.04625,0 0,-22.19875 -14.82125,0 -21.385,-20.5725 -16.4675,16.445 0,22.22 -10.6925,0 -17.2575,18.92625 -4.1275,-4.10625 19.73875,-19.76 7.42125,-0.8125 0,-16.4675 0.8125,-2.45875 20.5725,-21.4075 23.0325,23.05375 18.11375,0" />
        <path
           id="path4482"
           style="fill:#0000ff;fill-opacity:1;stroke:none"
           d="m 937.6691,-223.95388 0,31.26625 -13.98625,0 0,-4.1275 9.04625,0 0,-22.19875 -14.82125,0 -21.385,-20.5725 -16.4675,16.445 0,22.22 -10.6925,0 -17.2575,18.92625 -4.1275,-4.10625 19.73875,-19.76 7.42125,-0.8125 0,-16.4675 0.8125,-2.45875 20.5725,-21.4075 23.0325,23.05375 18.11375,0 0,0 z" />
        <path
           id="path4484"
           style="fill:#ff3200;fill-opacity:1;fill-rule:nonzero;stroke:none"
           d="m 846.3316,-187.74763 -6.5875,0 0,-4.1275 10.6925,0 -4.105,4.1275" />
        <path
           id="path4486"
           style="fill:#0000ff;fill-opacity:1;stroke:none"
           d="m 846.3316,-187.74763 -6.5875,0 0,-4.1275 10.6925,0 -4.105,4.1275 z" />
        <path
           id="path4488"
           style="fill:#ff3200;fill-opacity:1;fill-rule:nonzero;stroke:none"
           d="m 931.8941,-185.28888 -8.21125,0 0.8125,-4.10625 11.52625,0 -4.1275,4.10625" />
        <path
           id="path4490"
           style="fill:#0000ff;fill-opacity:1;stroke:none"
           d="m 931.8941,-185.28888 -8.21125,0 0.8125,-4.10625 11.52625,0 -4.1275,4.10625 z" />
        <path
           id="path4492"
           style="fill:#ff3200;fill-opacity:1;fill-rule:nonzero;stroke:none"
           d="m 863.61035,-186.10138 0,0.15375 -0.0213,0.0662 -0.0225,0.0662 0,0.0875 -0.0213,0.0662 -0.0225,0.0875 -0.0437,0.065 -0.0225,0.0662 -0.0437,0.0875 -0.0213,0.0662 -0.045,0.0662 -0.0213,0.0662 -0.0437,0.065 -0.0438,0.0437 -0.0437,0.0662 -0.0225,0.065 -0.0438,0.045 -0.0437,0.0437 -0.0438,0.0662 -0.0225,0.0437 -0.0437,0.0438 -0.0225,0.0213 -0.0437,0.045 -0.0213,0.0437 -0.0225,0.0213 -0.0213,0.0225 0,0 -0.0225,0.0212 0,0.0225 -0.0225,0 0,0.0225 -5.77375,7.39875 -3.29375,-3.29375 7.42125,-8.23375 c 0,0 1.64625,1.64625 2.45875,2.48125" />
        <path
           id="path4494"
           style="fill:#0000ff;fill-opacity:1;stroke:none"
           d="m 863.61035,-186.10138 0,0.15375 -0.0213,0.0662 -0.0225,0.0662 0,0.0875 -0.0213,0.0662 -0.0225,0.0875 -0.0437,0.065 -0.0225,0.0662 -0.0437,0.0875 -0.0213,0.0662 -0.045,0.0662 -0.0213,0.0662 -0.0437,0.065 -0.0438,0.0437 -0.0437,0.0662 -0.0225,0.065 -0.0438,0.045 -0.0437,0.0437 -0.0438,0.0662 -0.0225,0.0437 -0.0437,0.0438 -0.0225,0.0213 -0.0437,0.045 -0.0213,0.0437 -0.0225,0.0213 -0.0213,0.0225 0,0 -0.0225,0.0212 0,0.0225 -0.0225,0 0,0.0225 -5.77375,7.39875 -3.29375,-3.29375 7.42125,-8.23375 c 0,0 1.64625,1.64625 2.45875,2.48125 l 1e-4,5.5e-4 z" />
        <path
           id="path4496"
           style="fill:#ff3200;fill-opacity:1;fill-rule:nonzero;stroke:none"
           d="m 832.34535,-326.79638 0.0662,0.0663 0.0875,0.0875 0.0438,0.0888 0.0662,0.0875 0.0662,0.10875 0.0438,0.0887 0.065,0.11 0.0438,0.10875 0.0225,0.0888 0.0437,0.11 0.0438,0.13125 0.0225,0.11 0.0438,0.11 0.0213,0.10875 0.0225,0.11 0.0225,0.1325 0.0213,0.21875 0.0225,0.22 0.0213,0.24125 0.0225,0.11 0,0.83375 -4.91875,0 c 0,-1.64625 0,-4.105 -0.83375,-4.9175 2.48125,-0.835 4.105,0.8125 4.94,1.64625" />
        <path
           id="path4498"
           style="fill:#0000ff;fill-opacity:1;stroke:none"
           d="m 832.34535,-326.79638 0.0662,0.0663 0.0875,0.0875 0.0438,0.0888 0.0662,0.0875 0.0662,0.10875 0.0438,0.0887 0.065,0.11 0.0438,0.10875 0.0225,0.0888 0.0437,0.11 0.0438,0.13125 0.0225,0.11 0.0438,0.11 0.0213,0.10875 0.0225,0.11 0.0225,0.1325 0.0213,0.21875 0.0225,0.22 0.0213,0.24125 0.0225,0.11 0,0.83375 -4.91875,0 c 0,-1.64625 0,-4.105 -0.83375,-4.9175 2.48125,-0.835 4.105,0.8125 4.94,1.64625 l -2e-4,-10e-5 z" />
        <path
           id="path4500"
           style="fill:#ff3200;fill-opacity:1;fill-rule:nonzero;stroke:none"
           d="m 822.46535,-304.59888 -0.17625,0 -0.0437,0.0225 -0.5925,0 -0.17625,0.0225 -0.395,0 -0.1975,0.0213 -0.22,0.0225 -0.21875,0 -0.24125,0.0213 -0.22,0.0225 -0.24125,0.0213 -0.48375,0.0663 -0.4825,0.0662 -0.2425,0.0213 -0.21875,0.0437 -0.24125,0.0437 -0.22,0.0663 -0.21875,0.0437 -0.19875,0.0663 -0.1975,0.0437 -0.175,0.0663 -0.17625,0.0662 -0.175,0.0875 c 0,-1.6475 0.83375,-4.1275 2.48,-4.1275 0.8125,-0.8125 1.625,-0.8125 3.2725,-0.8125 l 0,4.105" />
        <path
           id="path4502"
           style="fill:#0000ff;fill-opacity:1;stroke:none"
           d="m 822.46535,-304.59888 -0.17625,0 -0.0437,0.0225 -0.5925,0 -0.17625,0.0225 -0.395,0 -0.1975,0.0213 -0.22,0.0225 -0.21875,0 -0.24125,0.0213 -0.22,0.0225 -0.24125,0.0213 -0.48375,0.0663 -0.4825,0.0662 -0.2425,0.0213 -0.21875,0.0437 -0.24125,0.0437 -0.22,0.0663 -0.21875,0.0437 -0.19875,0.0663 -0.1975,0.0437 -0.175,0.0663 -0.17625,0.0662 -0.175,0.0875 c 0,-1.6475 0.83375,-4.1275 2.48,-4.1275 0.8125,-0.8125 1.625,-0.8125 3.2725,-0.8125 l 0,4.105 -5e-5,-1e-4 z" />
        <path
           id="path4504"
           style="fill:#ff3200;fill-opacity:1;fill-rule:nonzero;stroke:none"
           d="m 817.5466,-264.28638 -0.0213,0 0,0 -0.0225,-0.0225 0,-0.0225 -0.0225,0 -0.0213,-0.0212 -0.0225,-0.0225 -0.0438,-0.0437 -0.0213,-0.0213 -0.0662,-0.0662 -0.0875,-0.0875 -0.0875,-0.0888 -0.11,-0.0875 -0.11,-0.11 -0.11,-0.11 -0.1325,-0.10875 -0.13125,-0.1325 -0.13125,-0.11 -0.15375,-0.13125 -0.15375,-0.13125 -0.15375,-0.15375 -0.15375,-0.1325 -0.35125,-0.2625 -0.32875,-0.28625 -0.3525,-0.26375 -0.175,-0.13125 -0.17625,-0.13125 -0.15375,-0.11 -0.175,-0.11 -0.175,-0.11 -0.15375,-0.0875 -0.17625,-0.0875 -0.15375,-0.0888 c 0.83375,-0.83375 3.29375,-1.64625 4.94,-0.83375 0.83375,0 1.64625,0.83375 2.45875,1.64625 l -3.27125,2.46" />
        <path
           id="path4506"
           style="fill:#0000ff;fill-opacity:1;stroke:none"
           d="m 817.5466,-264.28638 -0.0213,0 0,0 -0.0225,-0.0225 0,-0.0225 -0.0225,0 -0.0213,-0.0212 -0.0225,-0.0225 -0.0438,-0.0437 -0.0213,-0.0213 -0.0662,-0.0662 -0.0875,-0.0875 -0.0875,-0.0888 -0.11,-0.0875 -0.11,-0.11 -0.11,-0.11 -0.1325,-0.10875 -0.13125,-0.1325 -0.13125,-0.11 -0.15375,-0.13125 -0.15375,-0.13125 -0.15375,-0.15375 -0.15375,-0.1325 -0.35125,-0.2625 -0.32875,-0.28625 -0.3525,-0.26375 -0.175,-0.13125 -0.17625,-0.13125 -0.15375,-0.11 -0.175,-0.11 -0.175,-0.11 -0.15375,-0.0875 -0.17625,-0.0875 -0.15375,-0.0888 c 0.83375,-0.83375 3.29375,-1.64625 4.94,-0.83375 0.83375,0 1.64625,0.83375 2.45875,1.64625 l -3.27125,2.46 1.5e-4,0 z" />
        <path
           id="path4508"
           style="fill:#ff3200;fill-opacity:1;fill-rule:nonzero;stroke:none"
           d="m 822.46535,-268.39263 0,-0.0225 -0.0225,0 -0.0225,-0.0213 -0.0213,-0.0437 -0.0225,-0.0225 -0.0213,-0.0225 -0.0225,-0.0437 -0.0438,-0.0438 -0.0213,-0.0437 -0.0437,-0.0437 -0.0888,-0.0875 -0.0875,-0.11 -0.11,-0.1325 -0.11,-0.13125 -0.13125,-0.13125 -0.13125,-0.1325 -0.15375,-0.15375 -0.15375,-0.15375 -0.15375,-0.15375 -0.17625,-0.1525 -0.175,-0.15375 -0.17625,-0.15375 -0.1975,-0.15375 -0.1975,-0.1325 -0.1975,-0.15375 -0.22,-0.13125 -0.1975,-0.1325 -0.22,-0.10875 -0.21875,-0.11 -0.22,-0.11 -0.22,-0.0875 -0.21875,-0.0662 -0.24125,-0.0663 -0.22,-0.0437 -0.1325,-0.0213 -0.10875,0 -0.11,-0.0225 -0.11,0 c 1.64625,-1.64625 3.27125,-3.29375 5.7525,-2.45875 0.8125,0 1.6475,0.8125 2.45875,1.64625 l -3.2925,4.10625" />
        <path
           id="path4510"
           style="fill:#0000ff;fill-opacity:1;stroke:none"
           d="m 822.46535,-268.39263 0,-0.0225 -0.0225,0 -0.0225,-0.0213 -0.0213,-0.0437 -0.0225,-0.0225 -0.0213,-0.0225 -0.0225,-0.0437 -0.0438,-0.0438 -0.0213,-0.0437 -0.0437,-0.0437 -0.0888,-0.0875 -0.0875,-0.11 -0.11,-0.1325 -0.11,-0.13125 -0.13125,-0.13125 -0.13125,-0.1325 -0.15375,-0.15375 -0.15375,-0.15375 -0.15375,-0.15375 -0.17625,-0.1525 -0.175,-0.15375 -0.17625,-0.15375 -0.1975,-0.15375 -0.1975,-0.1325 -0.1975,-0.15375 -0.22,-0.13125 -0.1975,-0.1325 -0.22,-0.10875 -0.21875,-0.11 -0.22,-0.11 -0.22,-0.0875 -0.21875,-0.0662 -0.24125,-0.0663 -0.22,-0.0437 -0.1325,-0.0213 -0.10875,0 -0.11,-0.0225 -0.11,0 c 1.64625,-1.64625 3.27125,-3.29375 5.7525,-2.45875 0.8125,0 1.6475,0.8125 2.45875,1.64625 l -3.2925,4.10625 2e-4,-10e-5 z" />
        <path
           id="path4512"
           style="fill:#ff3200;fill-opacity:1;fill-rule:nonzero;stroke:none"
           d="m 828.2391,-247.00763 0,0.0225 -0.0213,0 0,0 -0.0225,0.0213 -0.0213,0.0225 -0.0225,0 -0.0213,0.0213 -0.045,0.045 -0.0212,0.0213 -0.0438,0.0225 -0.0438,0.0437 -0.045,0.0438 -0.10875,0.0662 -0.11,0.10875 -0.11,0.11 -0.13125,0.11 -0.1325,0.13125 -0.15375,0.1325 -0.13125,0.15375 -0.15375,0.15375 -0.15375,0.15375 -0.15375,0.175 -0.15375,0.17625 -0.15375,0.175 -0.15375,0.1975 -0.15375,0.19875 -0.13125,0.19625 -0.1325,0.19875 -0.13125,0.21875 -0.13125,0.22 -0.11,0.22 -0.0888,0.21875 -0.0875,0.22 -0.0875,0.21875 -0.0438,0.2425 -0.0662,0.21875 0,0.11 -0.0213,0.1325 0,0.21875 c -0.835,-1.64625 -3.29375,-3.2925 -2.48125,-4.94 0.83375,-0.8125 0.83375,-2.45875 1.64625,-3.29375 l 4.1275,3.29375" />
        <path
           id="path4514"
           style="fill:#0000ff;fill-opacity:1;stroke:none"
           d="m 828.2391,-247.00763 0,0.0225 -0.0213,0 0,0 -0.0225,0.0213 -0.0213,0.0225 -0.0225,0 -0.0213,0.0213 -0.045,0.045 -0.0212,0.0213 -0.0438,0.0225 -0.0438,0.0437 -0.045,0.0438 -0.10875,0.0662 -0.11,0.10875 -0.11,0.11 -0.13125,0.11 -0.1325,0.13125 -0.15375,0.1325 -0.13125,0.15375 -0.15375,0.15375 -0.15375,0.15375 -0.15375,0.175 -0.15375,0.17625 -0.15375,0.175 -0.15375,0.1975 -0.15375,0.19875 -0.13125,0.19625 -0.1325,0.19875 -0.13125,0.21875 -0.13125,0.22 -0.11,0.22 -0.0888,0.21875 -0.0875,0.22 -0.0875,0.21875 -0.0438,0.2425 -0.0662,0.21875 0,0.11 -0.0213,0.1325 0,0.21875 c -0.835,-1.64625 -3.29375,-3.2925 -2.48125,-4.94 0.83375,-0.8125 0.83375,-2.45875 1.64625,-3.29375 l 4.1275,3.29375 3e-4,-1e-4 z" />
        <path
           id="path4516"
           style="fill:#ff3200;fill-opacity:1;fill-rule:nonzero;stroke:none"
           d="m 823.2991,-251.11388 -0.0213,0 0,0.0225 -0.0225,0 -0.0225,0.0212 -0.0213,0.0225 -0.0225,0.0225 -0.0438,0.0212 -0.0213,0.0225 -0.045,0.0437 -0.0438,0.0213 -0.0438,0.045 -0.10875,0.0875 -0.11,0.0875 -0.11,0.11 -0.1325,0.13125 -0.13125,0.11 -0.15375,0.15375 -0.13125,0.1325 -0.15375,0.15375 -0.15375,0.175 -0.15375,0.15375 -0.15375,0.17625 -0.15375,0.19625 -0.15375,0.17625 -0.15375,0.1975 -0.13125,0.22 -0.1325,0.1975 -0.13125,0.22 -0.1325,0.1975 -0.10875,0.21875 -0.0888,0.22 -0.0875,0.24125 -0.0875,0.22 -0.0437,0.22 -0.0663,0.24125 0,0.10875 -0.0225,0.11 0,0.2425 c -0.8125,-0.835 -3.2925,-3.29375 -2.45875,-5.775 0.8125,-0.8125 1.64625,-1.64625 1.64625,-2.45875 l 4.10625,3.2925" />
        <path
           id="path4518"
           style="fill:#0000ff;fill-opacity:1;stroke:none"
           d="m 823.2991,-251.11388 -0.0213,0 0,0.0225 -0.0225,0 -0.0225,0.0212 -0.0213,0.0225 -0.0225,0.0225 -0.0438,0.0212 -0.0213,0.0225 -0.045,0.0437 -0.0438,0.0213 -0.0438,0.045 -0.10875,0.0875 -0.11,0.0875 -0.11,0.11 -0.1325,0.13125 -0.13125,0.11 -0.15375,0.15375 -0.13125,0.1325 -0.15375,0.15375 -0.15375,0.175 -0.15375,0.15375 -0.15375,0.17625 -0.15375,0.19625 -0.15375,0.17625 -0.15375,0.1975 -0.13125,0.22 -0.1325,0.1975 -0.13125,0.22 -0.1325,0.1975 -0.10875,0.21875 -0.0888,0.22 -0.0875,0.24125 -0.0875,0.22 -0.0437,0.22 -0.0663,0.24125 0,0.10875 -0.0225,0.11 0,0.2425 c -0.8125,-0.835 -3.2925,-3.29375 -2.45875,-5.775 0.8125,-0.8125 1.64625,-1.64625 1.64625,-2.45875 l 4.10625,3.2925 3.5e-4,1e-4 z" />
        <path
           id="path4520"
           style="fill:#ff3200;fill-opacity:1;fill-rule:nonzero;stroke:none"
           d="m 837.28535,-194.33513 0,-0.0213 -0.0213,0 -0.0888,0 -0.0213,-0.0225 -0.0888,0 -0.065,-0.0212 -0.0438,0 -0.0662,-0.0225 -0.0438,0 -0.0662,-0.0225 -0.15375,-0.0212 -0.15375,-0.0225 -0.175,-0.0213 -0.17625,-0.0225 -0.175,-0.0212 -0.1975,-0.0225 -0.22,-0.0225 -0.1975,-0.0212 -0.22,-0.0225 -0.4175,-0.0438 -0.21875,0 -0.1975,-0.0212 -0.615,0 -0.1975,0.0212 -0.17625,0.0225 -0.175,0.0213 -0.17625,0.0225 -0.0663,0.0212 -0.0875,0.0225 -0.065,0.0225 -0.0663,0.0212 -0.0662,0.0225 -0.0437,0.0213 -0.0663,0.0437 -0.0437,0.0225 -0.0438,0.0437 -0.0437,0.0438 c 0,-1.64625 0,-3.2925 2.45875,-4.1275 0,0 1.6475,-0.8125 2.48125,-0.8125 l 0,4.94" />
        <path
           id="path4522"
           style="fill:#0000ff;fill-opacity:1;stroke:none"
           d="m 837.28535,-194.33513 0,-0.0213 -0.0213,0 -0.0888,0 -0.0213,-0.0225 -0.0888,0 -0.065,-0.0212 -0.0438,0 -0.0662,-0.0225 -0.0438,0 -0.0662,-0.0225 -0.15375,-0.0212 -0.15375,-0.0225 -0.175,-0.0213 -0.17625,-0.0225 -0.175,-0.0212 -0.1975,-0.0225 -0.22,-0.0225 -0.1975,-0.0212 -0.22,-0.0225 -0.4175,-0.0438 -0.21875,0 -0.1975,-0.0212 -0.615,0 -0.1975,0.0212 -0.17625,0.0225 -0.175,0.0213 -0.17625,0.0225 -0.0663,0.0212 -0.0875,0.0225 -0.065,0.0225 -0.0663,0.0212 -0.0662,0.0225 -0.0437,0.0213 -0.0663,0.0437 -0.0437,0.0225 -0.0438,0.0437 -0.0437,0.0438 c 0,-1.64625 0,-3.2925 2.45875,-4.1275 0,0 1.6475,-0.8125 2.48125,-0.8125 l 0,4.94 2e-4,0 z" />
        <path
           id="path4524"
           style="fill:#ff3200;fill-opacity:1;fill-rule:nonzero;stroke:none"
           d="m 837.28535,-187.74763 -0.0213,0 -0.65875,0 -0.1325,0.0212 -0.32875,0 -0.15375,0.0225 -0.17625,0.0225 -0.1975,0 -0.17625,0.0212 -0.19625,0.0225 -0.19875,0.0213 -0.21875,0.0225 -0.1975,0.0438 -0.4175,0.065 -0.1975,0.0225 -0.1975,0.0437 -0.1975,0.0437 -0.19875,0.0663 -0.19625,0.0437 -0.19875,0.0662 -0.175,0.0437 -0.175,0.0663 -0.17625,0.0875 -0.15375,0.065 c 0,-2.45875 0,-4.105 2.45875,-4.93875 0,0 1.6475,0 2.48125,0 l 0,4.1275" />
        <path
           id="path4526"
           style="fill:#0000ff;fill-opacity:1;stroke:none"
           d="m 837.28535,-187.74763 -0.0213,0 -0.65875,0 -0.1325,0.0212 -0.32875,0 -0.15375,0.0225 -0.17625,0.0225 -0.1975,0 -0.17625,0.0212 -0.19625,0.0225 -0.19875,0.0213 -0.21875,0.0225 -0.1975,0.0438 -0.4175,0.065 -0.1975,0.0225 -0.1975,0.0437 -0.1975,0.0437 -0.19875,0.0663 -0.19625,0.0437 -0.19875,0.0662 -0.175,0.0437 -0.175,0.0663 -0.17625,0.0875 -0.15375,0.065 c 0,-2.45875 0,-4.105 2.45875,-4.93875 0,0 1.6475,0 2.48125,0 l 0,4.1275 5e-5,1.5e-4 z" />
        <path
           id="path4528"
           style="fill:#ff3200;fill-opacity:1;fill-rule:nonzero;stroke:none"
           d="m 921.2016,-191.87513 -0.0437,0 -0.37375,0 -0.10875,0.0213 -0.28625,0 -0.15375,0.0225 -0.15375,0 -0.175,0.0213 -0.17625,0 -0.1975,0.0225 -0.175,0.0213 -0.19875,0.0225 -0.19625,0.0225 -0.19875,0.0213 -0.21875,0.0225 -0.395,0.065 -0.22,0.045 -0.1975,0.0438 -0.1975,0.0437 -0.1975,0.0437 -0.19875,0.065 -0.19625,0.045 -0.17625,0.065 -0.17625,0.0662 -0.175,0.0662 -0.15375,0.0875 c 0,-2.48125 0.83375,-4.94 2.48125,-4.94 0.8125,-0.83375 2.45875,-0.83375 3.29375,-0.83375 l -0.835,4.94" />
        <path
           id="path4530"
           style="fill:#0000ff;fill-opacity:1;stroke:none"
           d="m 921.2016,-191.87513 -0.0437,0 -0.37375,0 -0.10875,0.0213 -0.28625,0 -0.15375,0.0225 -0.15375,0 -0.175,0.0213 -0.17625,0 -0.1975,0.0225 -0.175,0.0213 -0.19875,0.0225 -0.19625,0.0225 -0.19875,0.0213 -0.21875,0.0225 -0.395,0.065 -0.22,0.045 -0.1975,0.0438 -0.1975,0.0437 -0.1975,0.0437 -0.19875,0.065 -0.19625,0.045 -0.17625,0.065 -0.17625,0.0662 -0.175,0.0662 -0.15375,0.0875 c 0,-2.48125 0.83375,-4.94 2.48125,-4.94 0.8125,-0.83375 2.45875,-0.83375 3.29375,-0.83375 l -0.835,4.94 -5e-5,-5e-5 z" />
        <path
           id="path4532"
           style="fill:#ff3200;fill-opacity:1;fill-rule:nonzero;stroke:none"
           d="m 922.0366,-185.28888 -0.045,0 -0.4825,0 -0.13125,0.0225 -0.33,0 -0.175,0.0213 -0.1975,0 -0.19875,0.0225 -0.19625,0 -0.19875,0.0213 -0.21875,0.0225 -0.4175,0.0437 -0.22,0.0225 -0.21875,0.0213 -0.1975,0.0437 -0.19875,0.0225 -0.21875,0.0437 -0.17625,0.0437 -0.1975,0.0438 -0.175,0.0437 -0.15375,0.0662 -0.15375,0.0438 -0.0662,0.0225 -0.0663,0.0438 -0.065,0.0213 -0.0662,0.045 -0.0438,0.0213 -0.0438,0.0437 -0.045,0.0437 -0.0437,0.045 c 0,-1.6475 0,-4.12875 2.46,-4.94125 0,0 1.64625,0 2.48125,0 l 0,4.10625" />
        <path
           id="path4534"
           style="fill:#0000ff;fill-opacity:1;stroke:none"
           d="m 922.0366,-185.28888 -0.045,0 -0.4825,0 -0.13125,0.0225 -0.33,0 -0.175,0.0213 -0.1975,0 -0.19875,0.0225 -0.19625,0 -0.19875,0.0213 -0.21875,0.0225 -0.4175,0.0437 -0.22,0.0225 -0.21875,0.0213 -0.1975,0.0437 -0.19875,0.0225 -0.21875,0.0437 -0.17625,0.0437 -0.1975,0.0438 -0.175,0.0437 -0.15375,0.0662 -0.15375,0.0438 -0.0662,0.0225 -0.0663,0.0438 -0.065,0.0213 -0.0662,0.045 -0.0438,0.0213 -0.0438,0.0437 -0.045,0.0437 -0.0437,0.045 c 0,-1.6475 0,-4.12875 2.46,-4.94125 0,0 1.64625,0 2.48125,0 l 0,4.10625 0,0 z" />
        <path
           id="path4536"
           style="fill:#ff3200;fill-opacity:1;fill-rule:nonzero;stroke:none"
           d="m 856.2116,-175.40888 -0.0225,0 0,0 -0.0213,0.0225 0,0.0213 -0.0225,0 -0.0213,0.0225 -0.0225,0.0438 -0.0225,0.0225 -0.0425,0.0212 -0.0225,0.0438 -0.0437,0.0225 -0.0663,0.0875 -0.0875,0.0875 -0.0875,0.11 -0.0888,0.11 -0.11,0.11 -0.10875,0.13125 -0.11,0.1325 -0.11,0.15375 -0.11,0.13125 -0.11,0.15375 -0.13125,0.15375 -0.11,0.175 -0.11,0.15375 -0.11,0.17625 -0.10875,0.175 -0.11,0.15375 -0.0888,0.17625 -0.0875,0.17625 -0.0875,0.175 -0.0663,0.175 -0.065,0.17625 -0.0663,0.175 -0.0437,0.15375 -0.0225,0.17625 -0.0213,0.15375 0,0.0875 -0.0225,0.0662 c -1.625,-0.8125 -3.29375,-3.29375 -2.45875,-4.94 0,-0.8125 0.83375,-2.45875 1.64625,-2.45875 l 3.29375,3.2925" />
        <path
           id="path4538"
           style="fill:#0000ff;fill-opacity:1;stroke:none"
           d="m 856.2116,-175.40888 -0.0225,0 0,0 -0.0213,0.0225 0,0.0213 -0.0225,0 -0.0213,0.0225 -0.0225,0.0438 -0.0225,0.0225 -0.0425,0.0212 -0.0225,0.0438 -0.0437,0.0225 -0.0663,0.0875 -0.0875,0.0875 -0.0875,0.11 -0.0888,0.11 -0.11,0.11 -0.10875,0.13125 -0.11,0.1325 -0.11,0.15375 -0.11,0.13125 -0.11,0.15375 -0.13125,0.15375 -0.11,0.175 -0.11,0.15375 -0.11,0.17625 -0.10875,0.175 -0.11,0.15375 -0.0888,0.17625 -0.0875,0.17625 -0.0875,0.175 -0.0663,0.175 -0.065,0.17625 -0.0663,0.175 -0.0437,0.15375 -0.0225,0.17625 -0.0213,0.15375 0,0.0875 -0.0225,0.0662 c -1.625,-0.8125 -3.29375,-3.29375 -2.45875,-4.94 0,-0.8125 0.83375,-2.45875 1.64625,-2.45875 l 3.29375,3.2925 3e-4,-5e-5 z" />
        <path
           id="path4540"
           style="fill:#ff3200;fill-opacity:1;fill-rule:nonzero;stroke:none"
           d="m 850.4366,-180.34888 0,0 -0.0213,0.0225 -0.0225,0.0213 -0.0213,0 -0.0225,0.0225 -0.0438,0.0438 -0.0225,0.0212 -0.0425,0.0225 -0.045,0.0438 -0.0437,0.0437 -0.11,0.0888 -0.0875,0.0875 -0.13125,0.11 -0.11,0.10875 -0.13125,0.1325 -0.1325,0.13125 -0.13125,0.15375 -0.1325,0.15375 -0.15375,0.15375 -0.13125,0.17625 -0.13125,0.175 -0.1325,0.17625 -0.11,0.1975 -0.13125,0.1975 -0.11,0.1975 -0.11,0.22 -0.0875,0.1975 -0.0662,0.22 -0.065,0.21875 -0.0662,0.22 0,0.11 -0.0225,0.10875 -0.0213,0.11 0,0.46125 0.0213,0.13125 0.0225,0.11 0.0213,0.11 0.0225,0.11 0.0438,0.13125 c -1.64625,-1.64625 -4.1275,-4.1275 -3.29375,-6.58625 0.835,0 1.6475,-1.6475 1.6475,-1.6475 l 4.105,3.29375" />
        <path
           id="path4542"
           style="fill:#0000ff;fill-opacity:1;stroke:none"
           d="m 850.4366,-180.34888 0,0 -0.0213,0.0225 -0.0225,0.0213 -0.0213,0 -0.0225,0.0225 -0.0438,0.0438 -0.0225,0.0212 -0.0425,0.0225 -0.045,0.0438 -0.0437,0.0437 -0.11,0.0888 -0.0875,0.0875 -0.13125,0.11 -0.11,0.10875 -0.13125,0.1325 -0.1325,0.13125 -0.13125,0.15375 -0.1325,0.15375 -0.15375,0.15375 -0.13125,0.17625 -0.13125,0.175 -0.1325,0.17625 -0.11,0.1975 -0.13125,0.1975 -0.11,0.1975 -0.11,0.22 -0.0875,0.1975 -0.0662,0.22 -0.065,0.21875 -0.0662,0.22 0,0.11 -0.0225,0.10875 -0.0213,0.11 0,0.46125 0.0213,0.13125 0.0225,0.11 0.0213,0.11 0.0225,0.11 0.0438,0.13125 c -1.64625,-1.64625 -4.1275,-4.1275 -3.29375,-6.58625 0.835,0 1.6475,-1.6475 1.6475,-1.6475 l 4.105,3.29375 -10e-5,-1e-4 z" />
        <path
           id="path4544"
           style="fill:#ff3200;fill-opacity:1;fill-rule:nonzero;stroke:none"
           d="m 948.3616,-185.28888 0,2.48125 -5.775,6.565 -3.29375,-3.29375 7.4225,-8.21125 c 0,0 1.64625,1.64625 1.64625,2.45875" />
        <path
           id="path4546"
           style="fill:#0000ff;fill-opacity:1;stroke:none"
           d="m 948.3616,-185.28888 0,2.48125 -5.775,6.565 -3.29375,-3.29375 7.4225,-8.21125 c 0,0 1.64625,1.64625 1.64625,2.45875 z" />
        <path
           id="path4548"
           style="fill:#ff3200;fill-opacity:1;fill-rule:nonzero;stroke:none"
           d="m 940.94035,-175.40888 0,0 -0.0225,0.0225 -0.0213,0.0213 0,0 -0.0225,0.0225 -0.0213,0.0438 -0.0438,0.0225 -0.0225,0.0212 -0.0662,0.0875 -0.065,0.0888 -0.0888,0.0875 -0.0875,0.11 -0.11,0.11 -0.0875,0.13125 -0.11,0.13125 -0.11,0.15375 -0.11,0.15375 -0.13125,0.15375 -0.11,0.17625 -0.10875,0.175 -0.11,0.17625 -0.11,0.1975 -0.1325,0.1975 -0.0875,0.1975 -0.10875,0.1975 -0.0888,0.22 -0.11,0.21875 -0.065,0.22 -0.0888,0.22 -0.065,0.21875 -0.045,0.22 -0.0437,0.24125 -0.0438,0.22 -0.0213,0.24125 0,0.22 c -1.6475,-1.625 -3.29375,-3.27125 -2.46,-5.7525 0,0 0.8125,-1.64625 0.8125,-2.45875 l 4.10625,3.2925" />
        <path
           id="path4550"
           style="fill:#0000ff;fill-opacity:1;stroke:none"
           d="m 940.94035,-175.40888 0,0 -0.0225,0.0225 -0.0213,0.0213 0,0 -0.0225,0.0225 -0.0213,0.0438 -0.0438,0.0225 -0.0225,0.0212 -0.0662,0.0875 -0.065,0.0888 -0.0888,0.0875 -0.0875,0.11 -0.11,0.11 -0.0875,0.13125 -0.11,0.13125 -0.11,0.15375 -0.11,0.15375 -0.13125,0.15375 -0.11,0.17625 -0.10875,0.175 -0.11,0.17625 -0.11,0.1975 -0.1325,0.1975 -0.0875,0.1975 -0.10875,0.1975 -0.0888,0.22 -0.11,0.21875 -0.065,0.22 -0.0888,0.22 -0.065,0.21875 -0.045,0.22 -0.0437,0.24125 -0.0438,0.22 -0.0213,0.24125 0,0.22 c -1.6475,-1.625 -3.29375,-3.27125 -2.46,-5.7525 0,0 0.8125,-1.64625 0.8125,-2.45875 l 4.10625,3.2925 3e-4,-1e-4 z" />
        <path
           id="path4552"
           style="fill:#ff3200;fill-opacity:1;fill-rule:nonzero;stroke:none"
           d="m 936.0216,-179.53638 -0.0213,0 0,0.0225 -0.0225,0 -0.0213,0.0213 -0.0225,0.0225 -0.0225,0.0213 -0.0425,0.0225 -0.0225,0.0212 -0.0437,0.045 -0.0438,0.0213 -0.0438,0.0437 -0.045,0.045 -0.065,0.0438 -0.11,0.0875 -0.11,0.0875 -0.1325,0.11 -0.13125,0.13125 -0.15375,0.1325 -0.13125,0.13125 -0.15375,0.13125 -0.15375,0.15375 -0.15375,0.15375 -0.15375,0.15375 -0.15375,0.15375 -0.15375,0.17625 -0.15375,0.15375 -0.13125,0.175 -0.1325,0.17625 -0.13125,0.175 -0.13125,0.17625 -0.11,0.175 -0.0875,0.15375 -0.0888,0.17625 -0.0875,0.175 -0.0225,0.0888 -0.0213,0.0875 -0.0438,0.065 -0.0225,0.0888 0,0.0875 -0.0213,0.0662 0,0.175 c -1.6475,-0.83375 -2.48125,-3.2925 -1.6475,-4.94 0,-0.83375 0.8125,-1.64625 1.6475,-2.45875 l 3.2925,3.27125" />
        <path
           id="path4554"
           style="fill:#0000ff;fill-opacity:1;stroke:none"
           d="m 936.0216,-179.53638 -0.0213,0 0,0.0225 -0.0225,0 -0.0213,0.0213 -0.0225,0.0225 -0.0225,0.0213 -0.0425,0.0225 -0.0225,0.0212 -0.0437,0.045 -0.0438,0.0213 -0.0438,0.0437 -0.045,0.045 -0.065,0.0438 -0.11,0.0875 -0.11,0.0875 -0.1325,0.11 -0.13125,0.13125 -0.15375,0.1325 -0.13125,0.13125 -0.15375,0.13125 -0.15375,0.15375 -0.15375,0.15375 -0.15375,0.15375 -0.15375,0.15375 -0.15375,0.17625 -0.15375,0.15375 -0.13125,0.175 -0.1325,0.17625 -0.13125,0.175 -0.13125,0.17625 -0.11,0.175 -0.0875,0.15375 -0.0888,0.17625 -0.0875,0.175 -0.0225,0.0888 -0.0213,0.0875 -0.0438,0.065 -0.0225,0.0888 0,0.0875 -0.0213,0.0662 0,0.175 c -1.6475,-0.83375 -2.48125,-3.2925 -1.6475,-4.94 0,-0.83375 0.8125,-1.64625 1.6475,-2.45875 l 3.2925,3.27125 3.5e-4,-1.5e-4 z" />
        <path
           id="path4556"
           style="fill:#0000ff;fill-opacity:1;fill-rule:nonzero;stroke:none"
           d="m 485.13522,-319.34888 8.15138,-19.80375 12.22875,0 0,0.82 -0.975,0 c -0.88625,0 -1.595,0.155 -2.12625,0.465 -0.37,0.20625 -0.665,0.55375 -0.88625,1.04125 -0.1625,0.355 -0.24375,1.2775 -0.24375,2.76875 l 0,19.80375 c 0,1.53625 0.0812,2.49625 0.24375,2.88 0.1625,0.38375 0.495,0.72375 0.99625,1.01875 0.5025,0.28125 1.17375,0.42125 2.01625,0.42125 l 0.975,0 0,0.81875 -15.68387,0 0,-0.81875 0.97512,0 c 0.88625,0 1.59375,-0.155 2.12625,-0.465 0.36875,-0.2075 0.66375,-0.56125 0.88625,-1.06375 0.16125,-0.355 0.24375,-1.285 0.24375,-2.79125 l 0,-22.2625 -11.51937,27.40125 -0.53175,0 -11.69588,-27.2025 0,21.15625 c 0,1.47625 0.0366,2.38375 0.11038,2.72375 0.19237,0.73875 0.6055,1.34375 1.24075,1.81625 0.64987,0.4575 1.66162,0.6875 3.03462,0.6875 l 0,0.81875 -10.27825,0 0,-0.81875 0.31,0 c 0.66463,0.015 1.28475,-0.0888 1.86088,-0.31 0.57612,-0.23625 1.01175,-0.5475 1.30712,-0.93125 0.29538,-0.38375 0.52388,-0.9225 0.6865,-1.61625 0.0297,-0.1625 0.0445,-0.91625 0.0445,-2.26 l 0,-19.00625 c 0,-1.52125 -0.0816,-2.46625 -0.24375,-2.835 -0.1625,-0.38375 -0.49462,-0.71625 -0.997,-0.9975 -0.502,-0.295 -1.17387,-0.4425 -2.01562,-0.4425 l -0.95263,0 0,-0.82 12.272,0 8.43988,19.80375 m 40.25012,-0.86375 -11.365,0 c 0.13375,2.7475 0.865,4.9175 2.19375,6.5125 1.01875,1.22625 2.245,1.83875 3.6775,1.83875 0.88625,0 1.69125,-0.24375 2.415,-0.73125 0.72375,-0.50125 1.4975,-1.395 2.325,-2.68 l 0.75375,0.4875 c -1.1225,2.28875 -2.36375,3.91375 -3.72125,4.87375 -1.36,0.94375 -2.9325,1.4175 -4.71875,1.4175 -3.07125,0 -5.3975,-1.18125 -6.9775,-3.545 -1.27,-1.905 -1.905,-4.2675 -1.905,-7.08875 0,-3.455 0.93,-6.2025 2.79125,-8.24 1.875,-2.0525 4.0675,-3.07875 6.57875,-3.07875 2.0975,0 3.91375,0.86375 5.44875,2.59125 1.55125,1.71375 2.385,4.26125 2.50375,7.6425 m -5.45,-1.485 c 0,-2.37625 -0.1325,-4.00875 -0.39875,-4.895 -0.25,-0.88625 -0.65,-1.5575 -1.19625,-2.015 -0.31,-0.26625 -0.72375,-0.4 -1.24,-0.4 -0.7675,0 -1.39625,0.3775 -1.8825,1.13 -0.87125,1.315 -1.3075,3.11625 -1.3075,5.40625 l 0,0.77375 6.025,0 m 16.2375,-15.705 0,7.57625 4.9175,0 0,2.1925 -4.9175,0 0,12.7825 c 0,1.19625 0.0512,1.97125 0.155,2.325 0.11875,0.34 0.3175,0.62125 0.59875,0.8425 0.28,0.20625 0.53875,0.31 0.775,0.31 0.96,0 1.8675,-0.73125 2.725,-2.19375 l 0.66375,0.4875 c -1.19625,2.83625 -3.1375,4.25375 -5.82625,4.25375 -1.31375,0 -2.42875,-0.36125 -3.34375,-1.085 -0.90125,-0.73875 -1.4775,-1.55875 -1.72875,-2.46 -0.1475,-0.50125 -0.22125,-1.86 -0.22125,-4.07625 l 0,-11.18625 -2.7025,0 0,-0.775 c 1.86125,-1.31375 3.44125,-2.695 4.74,-4.1425 1.315,-1.4475 2.46,-3.06375 3.43375,-4.85125 l 0.73125,0 m 31.3675,7 0.33125,7.06625 -0.7525,0 c -0.90125,-2.09625 -1.83875,-3.52875 -2.81375,-4.2975 -0.96,-0.7675 -1.92,-1.15125 -2.88,-1.15125 -0.605,0 -1.12125,0.20625 -1.55,0.62 -0.4275,0.39875 -0.6425,0.86375 -0.6425,1.395 0,0.39875 0.1475,0.7825 0.4425,1.1525 0.4725,0.60625 1.795,1.64625 3.96625,3.12375 2.17,1.4625 3.59625,2.71 4.275,3.74375 0.69375,1.01875 1.04125,2.1625 1.04125,3.4325 0,1.1525 -0.28875,2.2825 -0.86375,3.39 -0.57625,1.1075 -1.38875,1.95625 -2.4375,2.5475 -1.04875,0.59 -2.2075,0.88625 -3.4775,0.88625 -0.99,0 -2.31125,-0.31 -3.965,-0.93125 -0.44375,-0.1625 -0.74625,-0.2425 -0.90875,-0.2425 -0.4875,0 -0.89375,0.36875 -1.2175,1.10625 l -0.73125,0 -0.355,-7.4425 0.75375,0 c 0.665,1.95 1.5725,3.41125 2.725,4.38625 1.16625,0.975 2.26625,1.4625 3.3,1.4625 0.70875,0 1.285,-0.215 1.7275,-0.6425 0.4575,-0.44375 0.6875,-0.975 0.6875,-1.595 0,-0.70875 -0.22125,-1.3225 -0.665,-1.83875 -0.4425,-0.5175 -1.4325,-1.3 -2.96875,-2.34875 -2.25875,-1.565 -3.72125,-2.76125 -4.38625,-3.5875 -0.97375,-1.21125 -1.46125,-2.5475 -1.46125,-4.01 0,-1.595 0.54625,-3.035 1.63875,-4.32 1.1075,-1.3 2.7025,-1.94875 4.785,-1.94875 1.1225,0 2.2075,0.2725 3.25625,0.81875 0.39875,0.2225 0.72375,0.3325 0.975,0.3325 0.26625,0 0.48,-0.0513 0.6425,-0.155 0.1625,-0.1175 0.42,-0.435 0.775,-0.9525 l 0.75375,0 m 12.75875,-7 0,7.57625 4.9175,0 0,2.1925 -4.9175,0 0,12.7825 c 0,1.19625 0.0525,1.97125 0.155,2.325 0.11875,0.34 0.3175,0.62125 0.59875,0.8425 0.28,0.20625 0.53875,0.31 0.775,0.31 0.96,0 1.8675,-0.73125 2.725,-2.19375 l 0.66375,0.4875 c -1.19625,2.83625 -3.1375,4.25375 -5.825,4.25375 -1.315,0 -2.43,-0.36125 -3.345,-1.085 -0.90125,-0.73875 -1.4775,-1.55875 -1.72875,-2.46 -0.1475,-0.50125 -0.22125,-1.86 -0.22125,-4.07625 l 0,-11.18625 -2.7025,0 0,-0.775 c 1.86125,-1.31375 3.44125,-2.695 4.74125,-4.1425 1.31375,-1.4475 2.45875,-3.06375 3.4325,-4.85125 l 0.73125,0 m 24.4775,17.19 -11.36375,0 c 0.1325,2.7475 0.86375,4.9175 2.1925,6.5125 1.02,1.22625 2.24625,1.83875 3.6775,1.83875 0.88625,0 1.69125,-0.24375 2.415,-0.73125 0.72375,-0.50125 1.49875,-1.395 2.32625,-2.68 l 0.7525,0.4875 c -1.12125,2.28875 -2.3625,3.91375 -3.72125,4.87375 -1.35875,0.94375 -2.93125,1.4175 -4.7175,1.4175 -3.0725,0 -5.39875,-1.18125 -6.97875,-3.545 -1.27,-1.905 -1.905,-4.2675 -1.905,-7.08875 0,-3.455 0.93125,-6.2025 2.79125,-8.24 1.87625,-2.0525 4.06875,-3.07875 6.57875,-3.07875 2.0975,0 3.91375,0.86375 5.45,2.59125 1.55,1.71375 2.385,4.26125 2.5025,7.6425 m -5.44875,-1.485 c 0,-2.37625 -0.1325,-4.00875 -0.39875,-4.895 -0.25125,-0.88625 -0.65,-1.5575 -1.19625,-2.015 -0.31,-0.26625 -0.72375,-0.4 -1.24125,-0.4 -0.7675,0 -1.395,0.3775 -1.8825,1.13 -0.87125,1.315 -1.30625,3.11625 -1.30625,5.40625 l 0,0.77375 6.025,0 m 28.02125,-8.12875 0,16.215 c 0,1.58 0.14875,2.57 0.44375,2.96875 0.295,0.38375 0.89375,0.6275 1.79375,0.73125 l 0,0.79625 -8.44,0 0,-2.76875 c -0.98875,1.1825 -1.97875,2.04625 -2.9675,2.5925 -0.99,0.53125 -2.0975,0.7975 -3.32375,0.7975 -1.16625,0 -2.2075,-0.355 -3.1225,-1.06375 -0.90125,-0.72375 -1.50625,-1.565 -1.81625,-2.525 -0.31125,-0.96 -0.465,-2.63625 -0.465,-5.02875 l 0,-8.21875 c 0,-1.565 -0.14875,-2.54 -0.44375,-2.92375 -0.28,-0.38375 -0.87875,-0.635 -1.79375,-0.75375 l 0,-0.81875 8.43875,0 0,14.155 c 0,1.47625 0.0663,2.42875 0.2,2.8575 0.1475,0.42875 0.36875,0.7525 0.665,0.975 0.31,0.22125 0.66375,0.33125 1.0625,0.33125 0.5325,0 1.0125,-0.14 1.44,-0.42 0.59125,-0.38375 1.3,-1.16 2.12625,-2.32625 l 0,-11.07625 c 0,-1.565 -0.1475,-2.54 -0.4425,-2.92375 -0.28125,-0.38375 -0.87875,-0.635 -1.795,-0.75375 l 0,-0.81875 8.44,0 m 13.7125,0 0,2.68 c 1.06375,-1.15125 2.0825,-1.98625 3.0575,-2.5025 0.97375,-0.5325 2.0225,-0.7975 3.145,-0.7975 1.34375,0 2.45875,0.37625 3.345,1.12875 0.88625,0.73875 1.47625,1.6625 1.7725,2.77 0.235,0.84125 0.35375,2.45875 0.35375,4.85 l 0,8.06375 c 0,1.595 0.14,2.5925 0.42125,2.99125 0.295,0.38375 0.9,0.6275 1.81625,0.73125 l 0,0.79625 -10.4775,0 0,-0.79625 c 0.7825,-0.10375 1.34375,-0.42875 1.68375,-0.975 0.23625,-0.37 0.35375,-1.285 0.35375,-2.7475 l 0,-9.215 c 0,-1.69875 -0.0663,-2.76875 -0.2,-3.2125 -0.1325,-0.4425 -0.36125,-0.7825 -0.68625,-1.01875 -0.31,-0.25125 -0.65625,-0.37625 -1.04125,-0.37625 -1.27,0 -2.45125,0.90875 -3.54375,2.725 l 0,11.0975 c 0,1.55125 0.14,2.5325 0.42125,2.94625 0.295,0.41375 0.83375,0.6725 1.61625,0.77625 l 0,0.79625 -10.4775,0 0,-0.79625 c 0.87125,-0.0888 1.49125,-0.37 1.86125,-0.8425 0.25,-0.325 0.37625,-1.285 0.37625,-2.88 l 0,-11.69625 c 0,-1.565 -0.1475,-2.54 -0.4425,-2.92375 -0.28125,-0.38375 -0.87875,-0.635 -1.795,-0.75375 l 0,-0.81875 8.44,0 m 37.48125,21.3325 -6.97875,-16.06 c -0.84125,-1.935 -1.49875,-3.16125 -1.97125,-3.6775 -0.34,-0.38375 -0.84125,-0.6425 -1.50625,-0.77625 l 0,-0.81875 11.01,0 0,0.81875 c -0.69375,0 -1.1675,0.12625 -1.4175,0.3775 -0.355,0.325 -0.5325,0.70875 -0.5325,1.15125 0,0.5475 0.325,1.57375 0.975,3.08 l 3.41125,7.775 2.725,-6.7125 c 0.7825,-1.91875 1.17375,-3.27875 1.17375,-4.075 0,-0.45875 -0.17,-0.8275 -0.51,-1.1075 -0.325,-0.29625 -0.9075,-0.45875 -1.74875,-0.48875 l 0,-0.81875 6.7775,0 0,0.81875 c -0.65,0.09 -1.18125,0.3325 -1.595,0.7325 -0.41375,0.3975 -1.03375,1.5725 -1.86,3.52125 l -6.9125,16.26 -1.04,0 m 24.765,-3.6775 c -2.525,2.23 -4.79125,3.345 -6.8,3.345 -1.18125,0 -2.16375,-0.38375 -2.94625,-1.1525 -0.7825,-0.7825 -1.175,-1.7575 -1.175,-2.92375 0,-1.58 0.68,-2.9975 2.03875,-4.2525 1.35875,-1.27 4.31875,-2.95375 8.8825,-5.05125 l 0,-2.0825 c 0,-1.565 -0.0888,-2.5475 -0.265,-2.94625 -0.1625,-0.4125 -0.48,-0.7675 -0.9525,-1.0625 -0.47375,-0.31 -1.005,-0.465 -1.59625,-0.46625 -0.96,10e-4 -1.75,0.215 -2.37,0.6425 -0.38375,0.26625 -0.575,0.57625 -0.575,0.93125 0,0.31 0.20625,0.69375 0.62,1.15125 0.56125,0.635 0.84125,1.2475 0.84125,1.83875 0,0.72375 -0.2725,1.34375 -0.82,1.86125 -0.53125,0.50125 -1.2325,0.7525 -2.10375,0.7525 -0.93,0 -1.7125,-0.28 -2.34875,-0.84125 -0.62,-0.56125 -0.93,-1.21875 -0.93,-1.97125 0,-1.06375 0.42125,-2.075 1.2625,-3.035 0.8425,-0.975 2.01625,-1.72125 3.5225,-2.2375 1.50625,-0.51625 3.07125,-0.775 4.69625,-0.775 1.96375,0 3.515,0.42125 4.65125,1.2625 1.1525,0.82625 1.89875,1.7275 2.2375,2.7025 0.2075,0.62 0.31,2.045 0.31,4.275 l 0,8.04125 c 0,0.945 0.0375,1.54375 0.11125,1.79375 0.0738,0.23625 0.185,0.41375 0.3325,0.5325 0.1475,0.1175 0.3175,0.1775 0.50875,0.1775 0.38375,0 0.77625,-0.27375 1.175,-0.82 l 0.665,0.53125 c -0.73875,1.0925 -1.5075,1.89 -2.305,2.3925 -0.7825,0.4875 -1.675,0.73125 -2.68,0.73125 -1.18125,0 -2.105,-0.27375 -2.76875,-0.82 -0.665,-0.56125 -1.07125,-1.4025 -1.21875,-2.525 m 0,-1.6175 0,-6.9325 c -1.7875,1.0475 -3.11625,2.17 -3.9875,3.36625 -0.57625,0.7975 -0.86375,1.6025 -0.86375,2.415 0,0.67875 0.24375,1.2775 0.73125,1.79375 0.36875,0.39875 0.88625,0.59875 1.55,0.59875 0.73875,0 1.595,-0.41375 2.57,-1.24125 m 19.715,-16.0375 0,2.68 c 1.06375,-1.15125 2.0825,-1.98625 3.0575,-2.5025 0.97375,-0.5325 2.02375,-0.7975 3.145,-0.7975 1.34375,0 2.45875,0.37625 3.345,1.12875 0.88625,0.73875 1.4775,1.6625 1.7725,2.77 0.23625,0.84125 0.355,2.45875 0.355,4.85 l 0,8.06375 c 0,1.595 0.14,2.5925 0.42,2.99125 0.29625,0.38375 0.90125,0.6275 1.81625,0.73125 l 0,0.79625 -10.4775,0 0,-0.79625 c 0.7825,-0.10375 1.34375,-0.42875 1.68375,-0.975 0.23625,-0.37 0.35375,-1.285 0.35375,-2.7475 l 0,-9.215 c 0,-1.69875 -0.0662,-2.76875 -0.19875,-3.2125 -0.1325,-0.4425 -0.36125,-0.7825 -0.6875,-1.01875 -0.31,-0.25125 -0.65625,-0.37625 -1.04,-0.37625 -1.27,0 -2.45125,0.90875 -3.545,2.725 l 0,11.0975 c 0,1.55125 0.14125,2.5325 0.42125,2.94625 0.295,0.41375 0.83375,0.6725 1.6175,0.77625 l 0,0.79625 -10.47875,0 0,-0.79625 c 0.87125,-0.0888 1.49125,-0.37 1.86125,-0.8425 0.25125,-0.325 0.37625,-1.285 0.37625,-2.88 l 0,-11.69625 c 0,-1.565 -0.1475,-2.54 -0.4425,-2.92375 -0.28125,-0.38375 -0.87875,-0.635 -1.795,-0.75375 l 0,-0.81875 8.44,0 m 48.26875,-9.32625 0,23.835 c 0,1.61 0.0437,2.5625 0.13375,2.8575 0.1175,0.48875 0.33875,0.85 0.66375,1.08625 0.34,0.23625 0.9225,0.38375 1.75,0.4425 l 0,0.73125 -8.75,1.70625 0,-3.27875 c -1.0475,1.27 -1.98625,2.13375 -2.81375,2.59125 -0.81125,0.4575 -1.73375,0.6875 -2.7675,0.6875 -2.64375,0 -4.73375,-1.18125 -6.27,-3.545 -1.24,-1.91875 -1.86,-4.275 -1.86,-7.06625 0,-2.23 0.38375,-4.22375 1.15125,-5.98125 0.76875,-1.77125 1.81625,-3.10875 3.14625,-4.00875 1.34375,-0.90125 2.7825,-1.35125 4.31875,-1.35125 0.99,0 1.86875,0.19125 2.63625,0.575 0.7675,0.385 1.5875,1.05625 2.45875,2.01625 l 0,-6.24625 c 0,-1.58 -0.0663,-2.53375 -0.19875,-2.8575 -0.1775,-0.42875 -0.44375,-0.74625 -0.7975,-0.9525 -0.355,-0.2075 -1.01875,-0.31 -1.99375,-0.31 l 0,-0.93125 9.1925,0 m -6.2025,14.045 c -1.0925,-2.0975 -2.42875,-3.14625 -4.00875,-3.14625 -0.54625,0 -0.9975,0.1475 -1.35125,0.4425 -0.5475,0.45875 -0.9975,1.26375 -1.35125,2.415 -0.34,1.1525 -0.51,2.9175 -0.51,5.295 0,2.61375 0.1925,4.5475 0.57625,5.80375 0.38375,1.255 0.9075,2.1625 1.5725,2.72375 0.34,0.28125 0.805,0.42125 1.395,0.42125 1.3,0 2.52625,-1.01875 3.6775,-3.0575 l 0,-10.8975 m 28.86375,4.895 -11.36375,0 c 0.1325,2.7475 0.86375,4.9175 2.1925,6.5125 1.02,1.22625 2.245,1.83875 3.6775,1.83875 0.88625,0 1.69125,-0.24375 2.415,-0.73125 0.72375,-0.50125 1.49875,-1.395 2.32625,-2.68 l 0.7525,0.4875 c -1.1225,2.28875 -2.3625,3.91375 -3.72125,4.87375 -1.35875,0.94375 -2.93125,1.4175 -4.71875,1.4175 -3.07125,0 -5.3975,-1.18125 -6.9775,-3.545 -1.27,-1.905 -1.905,-4.2675 -1.905,-7.08875 0,-3.455 0.93125,-6.2025 2.79125,-8.24 1.875,-2.0525 4.06875,-3.07875 6.57875,-3.07875 2.0975,0 3.91375,0.86375 5.45,2.59125 1.55,1.71375 2.385,4.26125 2.5025,7.6425 m -5.44875,-1.485 c 0,-2.37625 -0.1325,-4.00875 -0.39875,-4.895 -0.25125,-0.88625 -0.65,-1.5575 -1.19625,-2.015 -0.31,-0.26625 -0.72375,-0.4 -1.24125,-0.4 -0.7675,0 -1.395,0.3775 -1.8825,1.13 -0.87125,1.315 -1.30625,3.11625 -1.30625,5.40625 l 0,0.77375 6.025,0 m -307.75513,39.25375 0,0.82 c -1.09275,0.17625 -2.06737,0.76 -2.92375,1.75 -0.62012,0.7375 -1.5435,2.47375 -2.76912,5.205 l -10.34475,22.95 -0.73088,0 -10.30075,-23.88 c -1.24025,-2.88 -2.07475,-4.57125 -2.503,-5.0725 -0.41362,-0.5025 -1.20362,-0.82 -2.37062,-0.9525 l 0,-0.82 14.399,0 0,0.82 -0.48738,0 c -1.29975,0 -2.1855,0.1625 -2.65812,0.4875 -0.33988,0.22125 -0.50988,0.54625 -0.50988,0.97375 0,0.26625 0.0591,0.58375 0.17725,0.9525 0.11825,0.355 0.51713,1.3225 1.19638,2.9025 l 6.40187,14.9525 5.9365,-13.31375 c 0.709,-1.60875 1.1445,-2.6875 1.30713,-3.23375 0.16262,-0.54625 0.24362,-1.01125 0.24362,-1.395 0,-0.44375 -0.11812,-0.835 -0.3545,-1.175 -0.23637,-0.33875 -0.583,-0.5975 -1.041,-0.775 -0.63525,-0.25125 -1.477,-0.37625 -2.52537,-0.37625 l 0,-0.82 9.85737,0 m 10.21263,0 0,25.74 c 0,1.4625 0.16875,2.4 0.50875,2.81375 0.34,0.39875 1.005,0.6275 1.99375,0.68625 l 0,0.7975 -11.18625,0 0,-0.7975 c 0.9155,-0.0288 1.59475,-0.295 2.0375,-0.79625 0.2955,-0.34 0.44337,-1.24125 0.44337,-2.70375 l 0,-21.4425 c 0,-1.4475 -0.16987,-2.37 -0.50975,-2.76875 -0.33937,-0.41375 -0.9965,-0.65 -1.97112,-0.70875 l 0,-0.82 8.68375,0 m 15.905,26.98125 c -2.52625,2.23 -4.7925,3.345 -6.80125,3.345 -1.18125,0 -2.16375,-0.385 -2.94625,-1.1525 -0.7825,-0.7825 -1.17375,-1.7575 -1.17375,-2.92375 0,-1.58 0.67875,-2.9975 2.0375,-4.25375 1.35875,-1.27 4.32,-2.9525 8.88375,-5.05 l 0,-2.0825 c 0,-1.565 -0.0888,-2.5475 -0.26625,-2.94625 -0.1625,-0.41375 -0.48,-0.7675 -0.9525,-1.06375 -0.4725,-0.31 -1.00375,-0.46375 -1.595,-0.46375 -0.96,0 -1.75,0.21375 -2.37,0.64125 -0.38375,0.26625 -0.57625,0.57625 -0.57625,0.93125 0,0.31 0.20625,0.69375 0.62,1.15125 0.56125,0.635 0.8425,1.2475 0.8425,1.83875 0,0.72375 -0.27375,1.34375 -0.82,1.86125 -0.53125,0.50125 -1.2325,0.7525 -2.105,0.7525 -0.93,0 -1.7125,-0.28 -2.3475,-0.84125 -0.62,-0.56125 -0.93,-1.21875 -0.93,-1.97125 0,-1.06375 0.42,-2.07625 1.2625,-3.035 0.84125,-0.975 2.015,-1.72125 3.52125,-2.2375 1.50625,-0.5175 3.0725,-0.775 4.69625,-0.775 1.965,0 3.515,0.42 4.6525,1.2625 1.15125,0.82625 1.8975,1.7275 2.2375,2.7025 0.20625,0.62 0.31,2.045 0.31,4.275 l 0,8.04125 c 0,0.945 0.0362,1.5425 0.11,1.79375 0.0738,0.23625 0.185,0.41375 0.33375,0.5325 0.14625,0.1175 0.31625,0.17625 0.50875,0.17625 0.38375,0 0.775,-0.2725 1.17375,-0.81875 l 0.665,0.53125 c -0.73875,1.0925 -1.50625,1.89 -2.30375,2.3925 -0.78375,0.4875 -1.67625,0.73125 -2.68,0.73125 -1.1825,0 -2.105,-0.27375 -2.77,-0.82 -0.66375,-0.56125 -1.07,-1.4025 -1.2175,-2.525 m 0,-1.6175 0,-6.93375 c -1.7875,1.04875 -3.11625,2.17125 -3.9875,3.3675 -0.57625,0.7975 -0.86375,1.6025 -0.86375,2.41375 0,0.68 0.24375,1.27875 0.73125,1.795 0.36875,0.39875 0.885,0.5975 1.55,0.5975 0.73875,0 1.595,-0.4125 2.57,-1.24 m 22.68375,1.6175 c -2.52625,2.23 -4.7925,3.345 -6.80125,3.345 -1.18125,0 -2.16375,-0.385 -2.94625,-1.1525 -0.7825,-0.7825 -1.17375,-1.7575 -1.17375,-2.92375 0,-1.58 0.67875,-2.9975 2.0375,-4.25375 1.35875,-1.27 4.32,-2.9525 8.88375,-5.05 l 0,-2.0825 c 0,-1.565 -0.09,-2.5475 -0.26625,-2.94625 -0.1625,-0.41375 -0.48,-0.7675 -0.9525,-1.06375 -0.4725,-0.31 -1.005,-0.46375 -1.595,-0.46375 -0.96,0 -1.75,0.21375 -2.37,0.64125 -0.385,0.26625 -0.57625,0.57625 -0.57625,0.93125 0,0.31 0.20625,0.69375 0.62,1.15125 0.56125,0.635 0.84125,1.2475 0.84125,1.83875 0,0.72375 -0.2725,1.34375 -0.81875,1.86125 -0.5325,0.50125 -1.23375,0.7525 -2.105,0.7525 -0.93,0 -1.7125,-0.28 -2.3475,-0.84125 -0.62,-0.56125 -0.93,-1.21875 -0.93,-1.97125 0,-1.06375 0.42,-2.07625 1.2625,-3.035 0.84125,-0.975 2.015,-1.72125 3.52125,-2.2375 1.50625,-0.5175 3.0725,-0.775 4.69625,-0.775 1.96375,0 3.515,0.42 4.6525,1.2625 1.15125,0.82625 1.8975,1.7275 2.2375,2.7025 0.20625,0.62 0.31,2.045 0.31,4.275 l 0,8.04125 c 0,0.945 0.0362,1.5425 0.11,1.79375 0.0738,0.23625 0.185,0.41375 0.3325,0.5325 0.1475,0.1175 0.3175,0.17625 0.51,0.17625 0.38375,0 0.775,-0.2725 1.17375,-0.81875 l 0.66375,0.53125 c -0.7375,1.0925 -1.50625,1.89 -2.3025,2.3925 -0.78375,0.4875 -1.67625,0.73125 -2.68125,0.73125 -1.18125,0 -2.10375,-0.27375 -2.76875,-0.82 -0.66375,-0.56125 -1.07,-1.4025 -1.2175,-2.525 m 0,-1.6175 0,-6.93375 c -1.7875,1.04875 -3.11625,2.17125 -3.9875,3.3675 -0.57625,0.7975 -0.865,1.6025 -0.865,2.41375 0,0.68 0.24375,1.27875 0.73125,1.795 0.36875,0.39875 0.88625,0.5975 1.55125,0.5975 0.7375,0 1.59375,-0.4125 2.57,-1.24 m 19.8475,-16.0375 0,2.72375 c 1.13625,-1.24 2.185,-2.10375 3.145,-2.59125 0.975,-0.5025 2.03875,-0.7525 3.19,-0.7525 1.32875,0 2.445,0.31 3.345,0.93 0.90125,0.62 1.595,1.565 2.0825,2.835 1.18125,-1.32875 2.31125,-2.28875 3.38875,-2.88 1.0925,-0.59 2.23,-0.885 3.41125,-0.885 1.4325,0 2.57,0.33125 3.41125,0.99625 0.8575,0.65 1.4475,1.48375 1.7725,2.50375 0.34,1.00375 0.51,2.61375 0.51,4.82875 l 0,8.48375 c 0,1.595 0.14,2.585 0.42,2.96875 0.29625,0.38375 0.90125,0.635 1.8175,0.7525 l 0,0.7975 -10.7,0 0,-0.7975 c 0.8425,-0.0737 1.4625,-0.39875 1.86125,-0.97375 0.265,-0.39875 0.39875,-1.315 0.39875,-2.7475 l 0,-8.905 c 0,-1.84625 -0.0738,-3.02 -0.22125,-3.5225 -0.14875,-0.50125 -0.385,-0.87125 -0.71,-1.1075 -0.31,-0.25 -0.67875,-0.37625 -1.1075,-0.37625 -0.635,0 -1.2775,0.23625 -1.92625,0.70875 -0.65,0.4575 -1.3075,1.1525 -1.9725,2.0825 l 0,11.12 c 0,1.49125 0.12625,2.42875 0.3775,2.81375 0.33875,0.54625 0.98875,0.84875 1.94875,0.9075 l 0,0.7975 -10.72125,0 0,-0.7975 c 0.57625,-0.0288 1.02625,-0.17 1.35125,-0.42 0.34,-0.26625 0.56125,-0.57625 0.665,-0.93125 0.1175,-0.36875 0.17625,-1.15875 0.17625,-2.37 l 0,-8.905 c 0,-1.875 -0.0738,-3.05 -0.22125,-3.5225 -0.1475,-0.47125 -0.39875,-0.84125 -0.7525,-1.1075 -0.34,-0.265 -0.71,-0.39875 -1.1075,-0.39875 -0.59125,0 -1.13,0.155 -1.6175,0.465 -0.695,0.45875 -1.4325,1.24125 -2.215,2.34875 l 0,11.12 c 0,1.4625 0.14,2.42875 0.42,2.9025 0.29625,0.4575 0.90125,0.73 1.8175,0.81875 l 0,0.7975 -10.6775,0 0,-0.7975 c 0.87125,-0.0888 1.49125,-0.36875 1.86,-0.84125 0.25125,-0.325 0.3775,-1.285 0.3775,-2.88 l 0,-11.69625 c 0,-1.565 -0.1475,-2.54 -0.44375,-2.92375 -0.28,-0.38375 -0.8775,-0.635 -1.79375,-0.7525 l 0,-0.82 8.44,0 m 42.33125,-0.57625 0.3325,7.06625 -0.7525,0 c -0.90125,-2.09625 -1.83875,-3.52875 -2.81375,-4.2975 -0.96,-0.7675 -1.92,-1.15125 -2.88,-1.15125 -0.605,0 -1.1225,0.20625 -1.55,0.62 -0.42875,0.39875 -0.6425,0.86375 -0.6425,1.395 0,0.39875 0.1475,0.78375 0.4425,1.1525 0.4725,0.605 1.795,1.64625 3.96625,3.1225 2.17,1.4625 3.595,2.71 4.27375,3.74375 0.695,1.02 1.0425,2.16375 1.0425,3.43375 0,1.1525 -0.28875,2.2825 -0.865,3.39 -0.575,1.1075 -1.3875,1.95625 -2.43625,2.5475 -1.04875,0.59 -2.2075,0.885 -3.4775,0.885 -0.99,0 -2.31125,-0.31 -3.965,-0.93 -0.44375,-0.1625 -0.74625,-0.24375 -0.90875,-0.24375 -0.4875,0 -0.89375,0.37 -1.2175,1.1075 l -0.73125,0 -0.355,-7.4425 0.75375,0 c 0.66375,1.94875 1.5725,3.41125 2.72375,4.38625 1.1675,0.975 2.2675,1.46125 3.30125,1.46125 0.70875,0 1.285,-0.21375 1.7275,-0.6425 0.4575,-0.4425 0.6875,-0.97375 0.6875,-1.59375 0,-0.71 -0.2225,-1.3225 -0.665,-1.83875 -0.4425,-0.5175 -1.4325,-1.3 -2.96875,-2.34875 -2.26,-1.565 -3.72125,-2.76125 -4.38625,-3.58875 -0.97375,-1.21 -1.46125,-2.5475 -1.46125,-4.00875 0,-1.595 0.54625,-3.035 1.63875,-4.32 1.1075,-1.3 2.7025,-1.94875 4.785,-1.94875 1.1225,0 2.2075,0.2725 3.25625,0.81875 0.39875,0.22125 0.72375,0.3325 0.975,0.3325 0.265,0 0.48,-0.0512 0.6425,-0.155 0.1625,-0.11875 0.42,-0.43625 0.775,-0.9525 l 0.7525,0 m 22.08625,10.19 -11.36375,0 c 0.1325,2.74625 0.86375,4.9175 2.1925,6.5125 1.01875,1.225 2.245,1.83875 3.6775,1.83875 0.88625,0 1.69,-0.24375 2.41375,-0.73125 0.72375,-0.5025 1.5,-1.39625 2.32625,-2.68 l 0.75375,0.4875 c -1.1225,2.28875 -2.36375,3.9125 -3.7225,4.8725 -1.3575,0.945 -2.93125,1.4175 -4.7175,1.4175 -3.0725,0 -5.3975,-1.18125 -6.9775,-3.54375 -1.27,-1.905 -1.90625,-4.2675 -1.90625,-7.08875 0,-3.455 0.93125,-6.2025 2.79125,-8.24 1.87625,-2.0525 4.06875,-3.07875 6.58,-3.07875 2.09625,0 3.9125,0.86375 5.44875,2.59125 1.55125,1.7125 2.385,4.26 2.50375,7.6425 m -5.45,-1.48375 c 0,-2.37875 -0.1325,-4.01 -0.39875,-4.89625 -0.25125,-0.88625 -0.65,-1.5575 -1.19625,-2.01625 -0.31,-0.265 -0.72375,-0.3975 -1.24,-0.3975 -0.76875,0 -1.395,0.37625 -1.8825,1.12875 -0.8725,1.315 -1.3075,3.11625 -1.3075,5.405 l 0,0.77625 6.025,0 m 29.13,-8.75 c 1.80125,0 3.4775,0.465 5.0275,1.395 1.55125,0.93 2.725,2.2525 3.5225,3.965 0.8125,1.71375 1.21875,3.58875 1.21875,5.6275 0,2.9375 -0.745,5.39625 -2.2375,7.37625 -1.80125,2.39125 -4.29,3.5875 -7.465,3.5875 -3.11625,0 -5.51625,-1.0925 -7.19875,-3.2775 -1.68375,-2.18625 -2.52625,-4.71875 -2.52625,-7.59875 0,-2.9675 0.85625,-5.5525 2.57,-7.7525 1.7275,-2.215 4.09,-3.3225 7.08875,-3.3225 m 0.0888,1.5725 c -0.75375,0 -1.40375,0.2875 -1.95,0.86375 -0.53125,0.56125 -0.885,1.68375 -1.0625,3.3675 -0.1625,1.6675 -0.24375,3.99375 -0.24375,6.9775 0,1.58 0.1025,3.05625 0.31,4.43 0.1625,1.04875 0.50875,1.84625 1.04125,2.3925 0.53125,0.54625 1.13625,0.82 1.81625,0.82 0.66375,0 1.2175,-0.185 1.66125,-0.55375 0.57625,-0.5025 0.96,-1.20375 1.1525,-2.105 0.295,-1.4025 0.4425,-4.2375 0.4425,-8.50625 0,-2.51125 -0.14,-4.23125 -0.42125,-5.16125 -0.28,-0.945 -0.69375,-1.63125 -1.24,-2.06 -0.38375,-0.31 -0.88625,-0.465 -1.50625,-0.465 m 22.17375,20.37875 -6.9775,-16.06 c -0.8425,-1.93375 -1.5,-3.16 -1.97125,-3.67625 -0.34,-0.38375 -0.8425,-0.6425 -1.50625,-0.775 l 0,-0.82 11.00875,0 0,0.82 c -0.695,0 -1.16625,0.125 -1.4175,0.37625 -0.355,0.325 -0.53125,0.70875 -0.53125,1.15125 0,0.54625 0.32375,1.5725 0.97375,3.08 l 3.41125,7.775 2.725,-6.7125 c 0.7825,-1.92 1.17375,-3.27875 1.17375,-4.07625 0,-0.4575 -0.17,-0.82625 -0.51,-1.1075 -0.32375,-0.295 -0.9075,-0.4575 -1.75,-0.48625 l 0,-0.82 6.78,0 0,0.82 c -0.65,0.0875 -1.1825,0.33125 -1.59625,0.73 -0.41375,0.39875 -1.03375,1.57375 -1.86,3.5225 l -6.91125,16.25875 -1.04125,0 m 30.87875,-11.7175 -11.36375,0 c 0.13375,2.74625 0.86375,4.9175 2.19375,6.5125 1.01875,1.225 2.24375,1.83875 3.6775,1.83875 0.88625,0 1.69,-0.24375 2.41375,-0.73125 0.72375,-0.5025 1.49875,-1.39625 2.32625,-2.68 l 0.7525,0.4875 c -1.12125,2.28875 -2.3625,3.9125 -3.72,4.8725 -1.36,0.945 -2.9325,1.4175 -4.71875,1.4175 -3.0725,0 -5.3975,-1.18125 -6.97875,-3.54375 -1.27,-1.905 -1.905,-4.2675 -1.905,-7.08875 0,-3.455 0.93125,-6.2025 2.79125,-8.24 1.87625,-2.0525 4.06875,-3.07875 6.57875,-3.07875 2.0975,0 3.91375,0.86375 5.45,2.59125 1.55,1.7125 2.385,4.26 2.5025,7.6425 m -5.44875,-1.48375 c 0,-2.37875 -0.1325,-4.01 -0.39875,-4.89625 -0.25125,-0.88625 -0.65,-1.5575 -1.19625,-2.01625 -0.31,-0.265 -0.72375,-0.3975 -1.24,-0.3975 -0.76875,0 -1.39625,0.37625 -1.88375,1.12875 -0.87125,1.315 -1.30625,3.11625 -1.30625,5.405 l 0,0.77625 6.025,0 m 16.61375,-8.13 0,4.69625 c 1.37375,-2.14125 2.5775,-3.55875 3.61125,-4.25375 1.03375,-0.70875 2.03,-1.0625 2.99,-1.0625 0.8275,0 1.48375,0.2575 1.97125,0.775 0.5025,0.5025 0.75375,1.21875 0.75375,2.14875 0,0.99 -0.24375,1.7575 -0.73125,2.30375 -0.4725,0.54625 -1.04875,0.82 -1.7275,0.82 -0.7825,0 -1.4625,-0.25125 -2.03875,-0.75375 -0.57625,-0.5025 -0.915,-0.7825 -1.01875,-0.8425 -0.1475,-0.0875 -0.3175,-0.1325 -0.50875,-0.1325 -0.42875,0 -0.835,0.1625 -1.21875,0.4875 -0.60625,0.5025 -1.06375,1.21875 -1.37375,2.14875 -0.4725,1.4325 -0.70875,3.0125 -0.70875,4.74 l 0,4.7625 0.0225,1.24125 c 0,0.84125 0.0512,1.38125 0.155,1.6175 0.1775,0.39875 0.435,0.69375 0.775,0.885 0.355,0.1775 0.945,0.28875 1.7725,0.3325 l 0,0.7975 -11.18625,0 0,-0.7975 c 0.9,-0.0737 1.50625,-0.3175 1.81625,-0.73 0.32375,-0.42875 0.4875,-1.54375 0.4875,-3.34625 l 0,-11.45125 c 0,-1.1825 -0.06,-1.935 -0.1775,-2.26 -0.1475,-0.41375 -0.3625,-0.71625 -0.6425,-0.90875 -0.28125,-0.19125 -0.775,-0.32375 -1.48375,-0.3975 l 0,-0.82 8.46125,0 m 19.98125,-9.32625 0,11.98375 c 1.1375,-1.19625 2.1775,-2.0375 3.12375,-2.525 0.945,-0.5025 1.92625,-0.7525 2.945,-0.7525 1.3,0 2.4075,0.36875 3.32375,1.1075 0.93,0.7375 1.5425,1.61 1.83875,2.61375 0.31,0.98875 0.465,2.665 0.465,5.02875 l 0,8.085 c 0,1.58 0.1475,2.57 0.4425,2.96875 0.29625,0.38375 0.89375,0.6275 1.795,0.73 l 0,0.7975 -10.5,0 0,-0.7975 c 0.7375,-0.1025 1.29125,-0.39875 1.66125,-0.88625 0.26625,-0.38375 0.39875,-1.32125 0.39875,-2.8125 l 0,-9.2375 c 0,-1.71375 -0.0663,-2.78375 -0.2,-3.2125 -0.1325,-0.4425 -0.36125,-0.7825 -0.68625,-1.01875 -0.31,-0.25125 -0.665,-0.37625 -1.06375,-0.37625 -0.59,0 -1.16625,0.20625 -1.7275,0.62 -0.56125,0.39875 -1.16625,1.1075 -1.81625,2.1275 l 0,11.0975 c 0,1.47625 0.11125,2.4 0.3325,2.76875 0.28,0.5025 0.85625,0.8125 1.7275,0.93 l 0,0.7975 -10.5,0 0,-0.7975 c 0.87125,-0.0888 1.49125,-0.36875 1.86125,-0.84125 0.25,-0.325 0.37625,-1.2775 0.37625,-2.8575 l 0,-21.045 c 0,-1.565 -0.1475,-2.54 -0.44375,-2.92375 -0.28,-0.38375 -0.87875,-0.635 -1.79375,-0.7525 l 0,-0.82 8.44,0 m 34.335,18.94 -11.36375,0 c 0.1325,2.74625 0.86375,4.9175 2.19375,6.5125 1.01875,1.225 2.24375,1.83875 3.67625,1.83875 0.88625,0 1.69125,-0.24375 2.415,-0.73125 0.7225,-0.5025 1.49875,-1.39625 2.32625,-2.68 l 0.7525,0.4875 c -1.1225,2.28875 -2.3625,3.9125 -3.72125,4.8725 -1.35875,0.945 -2.93125,1.4175 -4.71875,1.4175 -3.07125,0 -5.3975,-1.18125 -6.9775,-3.54375 -1.27,-1.905 -1.905,-4.2675 -1.905,-7.08875 0,-3.455 0.93,-6.2025 2.79125,-8.24 1.875,-2.0525 4.06875,-3.07875 6.57875,-3.07875 2.0975,0 3.91375,0.86375 5.45,2.59125 1.55,1.7125 2.385,4.26 2.5025,7.6425 m -5.45,-1.48375 c 0,-2.37875 -0.1325,-4.01 -0.3975,-4.89625 -0.25125,-0.88625 -0.65,-1.5575 -1.19625,-2.01625 -0.31,-0.265 -0.72375,-0.3975 -1.24125,-0.3975 -0.7675,0 -1.395,0.37625 -1.8825,1.12875 -0.87125,1.315 -1.3075,3.11625 -1.3075,5.405 l 0,0.77625 6.025,0 m 13.00375,-18.165 c 0.96,0 1.7725,0.34 2.43625,1.01875 0.665,0.665 0.9975,1.47 0.9975,2.415 0,0.945 -0.34,1.75 -1.01875,2.415 -0.665,0.66375 -1.47,0.99625 -2.415,0.99625 -0.945,0 -1.75,-0.3325 -2.41375,-0.99625 -0.665,-0.665 -0.9975,-1.47 -0.9975,-2.415 0,-0.945 0.3325,-1.75 0.9975,-2.415 0.66375,-0.67875 1.46875,-1.01875 2.41375,-1.01875 m 3.10125,10.035 0,16.41375 c 0,1.4625 0.17,2.4 0.50875,2.81375 0.34,0.39875 1.005,0.6275 1.99375,0.68625 l 0,0.7975 -11.18625,0 0,-0.7975 c 0.91625,-0.0288 1.595,-0.295 2.03875,-0.79625 0.295,-0.34 0.4425,-1.24125 0.4425,-2.70375 l 0,-12.095 c 0,-1.46125 -0.17,-2.39125 -0.50875,-2.79125 -0.34,-0.4125 -0.9975,-0.64875 -1.9725,-0.7075 l 0,-0.82 8.68375,0 m 24.6325,-9.32625 0,23.835 c 0,1.61 0.045,2.5625 0.13375,2.85875 0.1175,0.48625 0.33875,0.84875 0.66375,1.085 0.34,0.23625 0.9225,0.38375 1.75,0.4425 l 0,0.73125 -8.75,1.705 0,-3.2775 c -1.0475,1.27 -1.98625,2.13375 -2.8125,2.59125 -0.8125,0.4575 -1.735,0.68625 -2.76875,0.68625 -2.64375,0 -4.73375,-1.18125 -6.27,-3.54375 -1.24,-1.92 -1.86,-4.275 -1.86,-7.06625 0,-2.23 0.38375,-4.22375 1.15125,-5.98125 0.76875,-1.7725 1.81625,-3.10875 3.14625,-4.00875 1.34375,-0.90125 2.78375,-1.35125 4.31875,-1.35125 0.99,0 1.86875,0.19125 2.63625,0.575 0.7675,0.385 1.5875,1.05625 2.45875,2.01625 l 0,-6.2475 c 0,-1.58 -0.0662,-2.5325 -0.19875,-2.85625 -0.1775,-0.42875 -0.44375,-0.74625 -0.7975,-0.95375 -0.355,-0.20625 -1.01875,-0.31 -1.99375,-0.31 l 0,-0.93 9.1925,0 m -6.2025,14.04375 c -1.0925,-2.09625 -2.42875,-3.145 -4.00875,-3.145 -0.54625,0 -0.9975,0.1475 -1.35125,0.4425 -0.5475,0.45875 -0.9975,1.2625 -1.35125,2.415 -0.34,1.15125 -0.51,2.9175 -0.51,5.29375 0,2.61375 0.1925,4.54875 0.57625,5.80375 0.38375,1.25625 0.9075,2.16375 1.5725,2.725 0.34,0.28125 0.805,0.42125 1.395,0.42125 1.3,0 2.52625,-1.01875 3.6775,-3.05625 l 0,-10.9" />
        <path
           id="path4558"
           style="fill:#0000ff;fill-opacity:1;fill-rule:nonzero;stroke:none"
           d="m 964.3566,-323.89513 61.9824,0 0,-9.53565 -61.9824,0 0,9.53565 0,0 z" />
        <path
           id="path4560"
           style="fill:#0000ff;fill-opacity:1;fill-rule:nonzero;stroke:none"
           d="m 964.3566,-289.56638 61.9824,0 0,-9.53565 -61.9824,0 0,9.53565 0,0 z" />
        <path
           id="path4562"
           style="fill:#0000ff;fill-opacity:1;fill-rule:nonzero;stroke:none"
           d="m 964.3566,-255.71513 61.9824,0 0,-9.53565 -61.9824,0 0,9.53565 0,0 z" />
        <path
           id="path4564"
           style="fill:#0000ff;fill-opacity:1;fill-rule:nonzero;stroke:none"
           d="m 964.3566,-220.43263 61.9824,0 0,-9.53565 -61.9824,0 0,9.53565 0,0 z" />
        <path
           id="path4566"
           style="fill:#0000ff;fill-opacity:1;fill-rule:nonzero;stroke:none"
           d="m 964.3566,-187.05763 61.9824,0 0,-9.53565 -61.9824,0 0,9.53565 0,0 z" />
      </g>
    </g>
  </g>
</svg>
